<svg xmlns="http://www.w3.org/2000/svg" xmlns:xlink="http://www.w3.org/1999/xlink" viewBox="0 0 199.84 297.93"><defs><style>.cls-1{opacity:0.2;fill:url(#radial-gradient);}.cls-2{fill:#dcb647;}.cls-3{fill:#ebebeb;}.cls-4{fill:none;stroke:#000;stroke-linecap:round;stroke-linejoin:round;stroke-width:1.42px;}.cls-5{fill:#fff;}.cls-6{fill:#010101;}</style><radialGradient id="radial-gradient" cx="99.55" cy="281.34" r="65.38" gradientTransform="translate(0 209.96) scale(1 0.25)" gradientUnits="userSpaceOnUse"><stop offset="0"/><stop offset="1" stop-color="#fff" stop-opacity="0"/></radialGradient></defs><title>Aktivan_odmor_2</title><g id="Layer_2" data-name="Layer 2"><g id="Layer_1-2" data-name="Layer 1"><ellipse class="cls-1" cx="99.55" cy="281.34" rx="65.65" ry="16.59"/><path class="cls-2" d="M99.92,279.07a2.79,2.79,0,0,1-2.39-1.31L25.72,164.64a286.91,286.91,0,0,1-16-29.7c-.08-.16-7.63-17.19-7.63-35.62C2.13,45.73,46,2.13,99.92,2.13s97.8,43.6,97.8,97.19c0,18.45-7.56,35.46-7.63,35.62a286.24,286.24,0,0,1-16,29.7L102.31,277.76A2.79,2.79,0,0,1,99.92,279.07Z"/><path class="cls-3" d="M99.92,3.54c53.14,0,96.38,43,96.38,95.78,0,18.11-7.43,34.88-7.51,35a282.76,282.76,0,0,1-15.89,29.52L101.12,277a1.4,1.4,0,0,1-1.2.66,1.43,1.43,0,0,1-1.2-.66L26.92,163.88a283.49,283.49,0,0,1-15.87-29.52c-.07-.16-7.51-16.93-7.51-35,0-52.81,43.24-95.78,96.38-95.78m0-2.83C45.13.71.71,44.86.71,99.32c0,19,7.75,36.21,7.75,36.21A286.94,286.94,0,0,0,24.53,165.4l71.8,113.12a4.26,4.26,0,0,0,7.18,0L175.3,165.4a288.92,288.92,0,0,0,16.08-29.87s7.75-17.24,7.75-36.21C199.13,44.86,154.71.71,99.92.71Z"/><path class="cls-4" d="M199.13,99.32C199.13,44.86,154.71.71,99.92.71S.71,44.86.71,99.32c0,19,7.75,36.21,7.75,36.21A286.94,286.94,0,0,0,24.53,165.4l71.8,113.12a4.25,4.25,0,0,0,7.18,0L175.3,165.4a288.92,288.92,0,0,0,16.08-29.87S199.13,118.29,199.13,99.32Z"/><circle class="cls-5" cx="99.92" cy="99.92" r="79.06" transform="translate(-30.63 45.84) rotate(-22.5)"/><path class="cls-3" d="M99.92,22.28A77.64,77.64,0,1,1,22.28,99.92,77.73,77.73,0,0,1,99.92,22.28m0-2.84A80.48,80.48,0,1,0,180.4,99.92,80.48,80.48,0,0,0,99.92,19.44Z"/><g id="Layer_2-2" data-name="Layer 2"><g id="Layer_1-2-2" data-name="Layer 1-2"><circle class="cls-6" cx="134.43" cy="60.84" r="10.82"/><path class="cls-6" d="M101.1,112.45s-2.4,4.65-14.17,2.24-27.22-9.88-27.22-9.88-20.36,9-24,10.56-6.11-1.88-6.79-4-.29-6.1,3-7.38S59,92.19,60.65,91.76a7.26,7.26,0,0,1,4.73.43c1.37.6,8.76,3.61,8.76,3.61s-.09,1.71,1,2.14a19,19,0,0,0,1.93.69s-1.72,4.64.6,7.3,11.17,4.72,14.77,5.49A66.88,66.88,0,0,0,101.1,112.45Z"/><path class="cls-6" d="M145.59,86.52c10.74-19.34,13.74-25.25,13.66-27.39a4.15,4.15,0,0,0-3.36-3.87c-1.62-.35-2.9.34-4,2.23s-9.67,22.59-16.92,30.66-15.88,14.95-27.82,14.95a55.27,55.27,0,0,1-21.05-4.22s19.5,5.28,28.65,1.21,17-11.52,17-17.09-2.4-10.4-6.18-11.08-6-.18-8.84,1.8S97,87.86,97,87.86l4.58,1.27S120.52,79.62,122,79s2.68.41,1.43,1.21-21.08,10.64-21.08,10.64S83,86.63,79.8,85.89s-4.72,3.46-5,5.24.68,4.58,1.93,5,4.07,1.15,4.07,1.15-2.35,1.89-2.29,4.18.69,4,5.15,5.49,14.2,4.13,20.31,4.13A75.39,75.39,0,0,0,116.21,110s-7.95,9.11-24.32,9.11S62.62,108.7,60.11,108.25s-4.52.57-5,2.69.28,3.21,1.83,4.52,9.85,5.21,9.85,5.21l-7.2,19.58a79.64,79.64,0,0,1-6.92-4.83c-2.69-2.21-6.25-3.67-7.74-1.27s-1.54,3.56-.28,5,20.44,19.63,46.89,19.63,49-17.12,50.56-18.94a3.71,3.71,0,0,0-.38-5.23l-.2-.16c-1.54-1.31-3-1-4.52-.29s-10,6.19-10,6.19l-7.93-21.9A120.05,120.05,0,0,0,145.59,86.52Zm-24.17,56.77a59.32,59.32,0,0,1-28.63,7.56,56.68,56.68,0,0,1-27.91-7.22l7.73-20.5s7,4,20.51,4,20.3-5,20.3-5Z"/></g></g></g></g></svg>