<svg xmlns="http://www.w3.org/2000/svg" xmlns:xlink="http://www.w3.org/1999/xlink" viewBox="0 0 199.84 297.93"><defs><style>.cls-1{opacity:0.2;fill:url(#radial-gradient);}.cls-2{fill:#dcb647;}.cls-3{fill:#ebebeb;}.cls-4{fill:none;stroke:#000;stroke-linecap:round;stroke-linejoin:round;stroke-width:1.42px;}.cls-5{fill:#fff;}.cls-6{fill:#010101;}</style><radialGradient id="radial-gradient" cx="99.92" cy="281.34" r="65.38" gradientTransform="translate(0 209.96) scale(1 0.25)" gradientUnits="userSpaceOnUse"><stop offset="0"/><stop offset="1" stop-color="#fff" stop-opacity="0"/></radialGradient></defs><title>Arheoloska_nalazista_2</title><g id="Layer_2" data-name="Layer 2"><g id="Layer_1-2" data-name="Layer 1"><ellipse class="cls-1" cx="99.92" cy="281.34" rx="65.65" ry="16.59"/><path class="cls-2" d="M99.92,279.07a2.79,2.79,0,0,1-2.39-1.31L25.72,164.64a286.91,286.91,0,0,1-16-29.7c-.08-.16-7.63-17.19-7.63-35.62C2.13,45.73,46,2.13,99.92,2.13s97.8,43.6,97.8,97.19c0,18.45-7.56,35.46-7.63,35.62a286.24,286.24,0,0,1-16,29.7L102.31,277.76A2.79,2.79,0,0,1,99.92,279.07Z"/><path class="cls-3" d="M99.92,3.54c53.14,0,96.38,43,96.38,95.78,0,18.11-7.43,34.88-7.51,35a282.76,282.76,0,0,1-15.89,29.52L101.12,277a1.4,1.4,0,0,1-1.2.66,1.43,1.43,0,0,1-1.2-.66L26.92,163.88a283.49,283.49,0,0,1-15.87-29.52c-.07-.16-7.51-16.93-7.51-35,0-52.81,43.24-95.78,96.38-95.78m0-2.83C45.13.71.71,44.86.71,99.32c0,19,7.75,36.21,7.75,36.21A286.94,286.94,0,0,0,24.53,165.4l71.8,113.12a4.26,4.26,0,0,0,7.18,0L175.3,165.4a288.92,288.92,0,0,0,16.08-29.87s7.75-17.24,7.75-36.21C199.13,44.86,154.71.71,99.92.71Z"/><path class="cls-4" d="M199.13,99.32C199.13,44.86,154.71.71,99.92.71S.71,44.86.71,99.32c0,19,7.75,36.21,7.75,36.21A286.94,286.94,0,0,0,24.53,165.4l71.8,113.12a4.25,4.25,0,0,0,7.18,0L175.3,165.4a288.92,288.92,0,0,0,16.08-29.87S199.13,118.29,199.13,99.32Z"/><circle class="cls-5" cx="99.92" cy="99.92" r="79.06" transform="translate(-30.63 45.84) rotate(-22.5)"/><path class="cls-3" d="M99.92,22.28A77.64,77.64,0,1,1,22.28,99.92,77.73,77.73,0,0,1,99.92,22.28m0-2.84A80.48,80.48,0,1,0,180.4,99.92,80.48,80.48,0,0,0,99.92,19.44Z"/><g id="Layer_2-2" data-name="Layer 2"><g id="Layer_1-2-2" data-name="Layer 1-2"><path class="cls-6" d="M99.42,144.57h-37a4.82,4.82,0,0,0-4.72,4.63c0,3,1.87,4.71,4,4.71H98.8c3,0,4.44-2,4.44-4S102.71,144.57,99.42,144.57Z"/><path class="cls-6" d="M96.84,58.5a21.92,21.92,0,0,0,1.47,4.31l17-7.25a7.37,7.37,0,0,0-2.89-4.94c-2.54-1.64-4-2.49-7.16-1.51a20,20,0,0,0-6.34,2.8A7.33,7.33,0,0,0,96.84,58.5Z"/><path class="cls-6" d="M82.58,81.47c-.66,3.9-.66,3.74-.6,4.71s1.15,2.2,1.87,1c0,0,3.94-7.07,9.67-9.61a22.33,22.33,0,0,1,12.28-2.1c2.87.26,6.14.93,8.74-.47s5.14-7.34,10.81-10.41a23.09,23.09,0,0,1,12.28-3.22c2.94,0,5.2.67,6.07.47s1-1.07.27-1.94-5.34-4.6-9.74-5.13-6.14-.21-11.41,1.93-30.43,13-33.63,14.56S83.25,77.54,82.58,81.47Z"/><path class="cls-6" d="M149.15,149.24c-1.07-3.07-30.69-72.59-30.69-72.59A6.24,6.24,0,0,1,115.61,79a21.72,21.72,0,0,1-3.91.89s29,68.15,30.51,71.44,3.47,3.56,5.25,2.94S150.22,152.31,149.15,149.24Z"/><path class="cls-6" d="M61.61,50.62H95a20.81,20.81,0,0,1,3.83-3.73,17.14,17.14,0,0,1,4.36-1.69,4.29,4.29,0,0,0-4.45-3.83H61.61c-2.58,0-3.69,2.49-3.69,4.63S58.85,50.62,61.61,50.62Z"/><path class="cls-6" d="M63.92,54.72l4,19.75a41.85,41.85,0,0,1,7.57-1.78c3-.27,6.85-.27,6.85-.27S85.27,68.5,88,67a51.6,51.6,0,0,1,6.58-2.84,7.46,7.46,0,0,1-1.78-4.45c0-2.49.09-5,.09-5Z"/><path class="cls-6" d="M97.19,80.43S92,83.18,89.92,85.68s-2.76,5-4.36,5.6-5.25.62-6.85-1.69-1.07-7.12-.62-9.16a9.9,9.9,0,0,1,1.83-3.74S64.54,75.44,55,87.54s-10,24-4.89,35.86,10.14,17.17,10.14,17.17H100s13.88-13.7,13.88-31.67A32.28,32.28,0,0,0,108.67,91,34.92,34.92,0,0,0,97.19,80.43Zm13.26,29.81c0,6.14-2,8.89-2,8.89l-7.38-3.83L88.3,121.54l-12.64-6.17L63,121.54l-11.74-5.35s-.89-1.69-.89-8,1.78-9.25,1.78-9.25l9.16,4.81,12.72-6.59,12.86,6.4,12.5-6.41,10.5,5.34S110.45,104.09,110.45,110.24Z"/></g></g></g></g></svg>