<svg xmlns="http://www.w3.org/2000/svg" xmlns:xlink="http://www.w3.org/1999/xlink" viewBox="0 0 199.84 297.93"><defs><style>.cls-1{opacity:0.2;fill:url(#radial-gradient);}.cls-2{fill:#dcb647;}.cls-3{fill:#ebebeb;}.cls-4{fill:none;stroke:#000;stroke-linecap:round;stroke-linejoin:round;stroke-width:1.42px;}.cls-5{fill:#fff;}.cls-6{fill:#010101;}</style><radialGradient id="radial-gradient" cx="99.92" cy="281.34" r="65.38" gradientTransform="translate(0 209.96) scale(1 0.25)" gradientUnits="userSpaceOnUse"><stop offset="0"/><stop offset="1" stop-color="#fff" stop-opacity="0"/></radialGradient></defs><title>Bike_2</title><g id="Layer_2" data-name="Layer 2"><g id="Layer_1-2" data-name="Layer 1"><ellipse class="cls-1" cx="99.92" cy="281.34" rx="65.65" ry="16.59"/><path class="cls-2" d="M99.92,279.07a2.79,2.79,0,0,1-2.39-1.31L25.72,164.64a286.91,286.91,0,0,1-16-29.7c-.08-.16-7.63-17.19-7.63-35.62C2.13,45.73,46,2.13,99.92,2.13s97.8,43.6,97.8,97.19c0,18.45-7.56,35.46-7.63,35.62a286.24,286.24,0,0,1-16,29.7L102.31,277.76A2.79,2.79,0,0,1,99.92,279.07Z"/><path class="cls-3" d="M99.92,3.54c53.14,0,96.38,43,96.38,95.78,0,18.11-7.43,34.88-7.51,35a282.76,282.76,0,0,1-15.89,29.52L101.12,277a1.4,1.4,0,0,1-1.2.66,1.43,1.43,0,0,1-1.2-.66L26.92,163.88a283.49,283.49,0,0,1-15.87-29.52c-.07-.16-7.51-16.93-7.51-35,0-52.81,43.24-95.78,96.38-95.78m0-2.83C45.13.71.71,44.86.71,99.32c0,19,7.75,36.21,7.75,36.21A286.94,286.94,0,0,0,24.53,165.4l71.8,113.12a4.26,4.26,0,0,0,7.18,0L175.3,165.4a288.92,288.92,0,0,0,16.08-29.87s7.75-17.24,7.75-36.21C199.13,44.86,154.71.71,99.92.71Z"/><path class="cls-4" d="M199.13,99.32C199.13,44.86,154.71.71,99.92.71S.71,44.86.71,99.32c0,19,7.75,36.21,7.75,36.21A286.94,286.94,0,0,0,24.53,165.4l71.8,113.12a4.25,4.25,0,0,0,7.18,0L175.3,165.4a288.92,288.92,0,0,0,16.08-29.87S199.13,118.29,199.13,99.32Z"/><circle class="cls-5" cx="99.92" cy="99.92" r="79.06" transform="translate(-30.63 45.84) rotate(-22.5)"/><path class="cls-3" d="M99.92,22.28A77.64,77.64,0,1,1,22.28,99.92,77.73,77.73,0,0,1,99.92,22.28m0-2.84A80.48,80.48,0,1,0,180.4,99.92,80.48,80.48,0,0,0,99.92,19.44Z"/><g id="Layer_2-2" data-name="Layer 2"><g id="Layer_1-2-2" data-name="Layer 1-2"><circle class="cls-6" cx="118.34" cy="49.72" r="9.55"/><path class="cls-6" d="M35.28,121.84a25.06,25.06,0,0,0,50,2.43h.58a8,8,0,0,0,15.92-.31,7.86,7.86,0,0,0-1.33-4.41h0l20.67-25.66h4.81l1.66,4.94a25.72,25.72,0,1,0,4.36-1.41L130,91.92a4,4,0,0,0,.71-5.53,4.11,4.11,0,0,0-1.54-1.2h0l2.55-3.42,2.54,2.08a2.6,2.6,0,0,0,.36.3h0a2.43,2.43,0,0,0,2.68-4.05l-4.4-3.22-.23-.16h0a2.42,2.42,0,0,0-3.35.7.56.56,0,0,0,0,.08h0c0,.07-4.17,5.38-4.17,5.38l-10.16-4.51L105.65,53.1h0A4.81,4.81,0,0,0,101,49.58a5.31,5.31,0,0,0-1.48.23h0L74.59,58.57h0a11.74,11.74,0,0,0-5,19.14h0L77.7,90l-6.33,9.35a25.07,25.07,0,0,0-36.09,22.49Zm94.17-17.41,5.5,16.34h0a2.42,2.42,0,0,0,4.76-.92,1.68,1.68,0,0,0-.09-.32h0L133.86,103a19.23,19.23,0,1,1-4.41,1.43Zm-50,15.38H63.25L72,106.69a19.23,19.23,0,0,1,7.38,13.07Zm17.49-3.14-2.71-17.2,4.86-5.71h16.24L96.91,116.63ZM90.59,73.43l11.53-4,4.94,15.26,11,4.46H104.16a4.79,4.79,0,0,0,.55-6.77,4.62,4.62,0,0,0-.79-.74h0a5.59,5.59,0,0,0-.66-.41ZM87.7,83.57,93,86.79c-.15.11-2.19,2.76-2.19,2.76Zm-2.4,36.19a25,25,0,0,0-10-18l5.2-7.69,2.94,4.58.21,2.32-1.3,2.26a3.34,3.34,0,0,0-.5.83h0a3.25,3.25,0,0,0-.28,1.34A3.42,3.42,0,0,0,85,108.82h0a3.27,3.27,0,0,0,.88-.11h0l2.35,9.61a7.53,7.53,0,0,0-1.14,1.44Zm-44.15,2.08a19.21,19.21,0,0,1,26.91-17.57L57.18,120.4h0a2.42,2.42,0,0,0,1.92,3.85H79.37a19.22,19.22,0,0,1-38.22-2.41Z"/></g></g></g></g></svg>