<svg xmlns="http://www.w3.org/2000/svg" xmlns:xlink="http://www.w3.org/1999/xlink" viewBox="0 0 199.84 297.93"><defs><style>.cls-1{opacity:0.2;fill:url(#radial-gradient);}.cls-2{fill:#dcb647;}.cls-3{fill:#ebebeb;}.cls-4{fill:none;stroke:#000;stroke-linecap:round;stroke-linejoin:round;stroke-width:1.42px;}.cls-5{fill:#fff;}.cls-6{fill:#010101;}</style><radialGradient id="radial-gradient" cx="99.92" cy="281.34" r="65.38" gradientTransform="translate(0 209.96) scale(1 0.25)" gradientUnits="userSpaceOnUse"><stop offset="0"/><stop offset="1" stop-color="#fff" stop-opacity="0"/></radialGradient></defs><title>Dogadjaj_2</title><g id="Layer_2" data-name="Layer 2"><g id="Layer_1-2" data-name="Layer 1"><ellipse class="cls-1" cx="99.92" cy="281.34" rx="65.65" ry="16.59"/><path class="cls-2" d="M99.92,279.07a2.79,2.79,0,0,1-2.39-1.31L25.72,164.64a286.91,286.91,0,0,1-16-29.7c-.08-.16-7.63-17.19-7.63-35.62C2.13,45.73,46,2.13,99.92,2.13s97.8,43.6,97.8,97.19c0,18.45-7.56,35.46-7.63,35.62a286.24,286.24,0,0,1-16,29.7L102.31,277.76A2.79,2.79,0,0,1,99.92,279.07Z"/><path class="cls-3" d="M99.92,3.54c53.14,0,96.38,43,96.38,95.78,0,18.11-7.43,34.88-7.51,35a282.76,282.76,0,0,1-15.89,29.52L101.12,277a1.4,1.4,0,0,1-1.2.66,1.43,1.43,0,0,1-1.2-.66L26.92,163.88a283.49,283.49,0,0,1-15.87-29.52c-.07-.16-7.51-16.93-7.51-35,0-52.81,43.24-95.78,96.38-95.78m0-2.83C45.13.71.71,44.86.71,99.32c0,19,7.75,36.21,7.75,36.21A286.94,286.94,0,0,0,24.53,165.4l71.8,113.12a4.26,4.26,0,0,0,7.18,0L175.3,165.4a288.92,288.92,0,0,0,16.08-29.87s7.75-17.24,7.75-36.21C199.13,44.86,154.71.71,99.92.71Z"/><path class="cls-4" d="M199.13,99.32C199.13,44.86,154.71.71,99.92.71S.71,44.86.71,99.32c0,19,7.75,36.21,7.75,36.21A286.94,286.94,0,0,0,24.53,165.4l71.8,113.12a4.25,4.25,0,0,0,7.18,0L175.3,165.4a288.92,288.92,0,0,0,16.08-29.87S199.13,118.29,199.13,99.32Z"/><circle class="cls-5" cx="99.92" cy="99.92" r="79.06" transform="translate(-30.63 45.84) rotate(-22.5)"/><path class="cls-3" d="M99.92,22.28A77.64,77.64,0,1,1,22.28,99.92,77.73,77.73,0,0,1,99.92,22.28m0-2.84A80.48,80.48,0,1,0,180.4,99.92,80.48,80.48,0,0,0,99.92,19.44Z"/><g id="Layer_2-2" data-name="Layer 2"><g id="Layer_1-2-2" data-name="Layer 1-2"><path class="cls-6" d="M135.66,59.22h-9.61V56.84c0-1.16,0-2.32-.08-3.48a4.37,4.37,0,0,0-3.24-3.92,1.59,1.59,0,0,1-.27-.18h-2.61c-2.76.94-3.82,2.89-3.66,5.71.07,1.37,0,2.73,0,4.18H81.5v-5.3a4.22,4.22,0,0,0-1.57-3.46A15.46,15.46,0,0,0,78,49.26H75.24a18,18,0,0,0-2.38,1.6,4.08,4.08,0,0,0-1.14,3.27v5c-.4,0-.73.05-1,.05H62.18a9.34,9.34,0,0,0-9.52,9.14V133.7a9.33,9.33,0,0,0,9.09,9.55h73.82a9.33,9.33,0,0,0,9.61-9V68.85A9.43,9.43,0,0,0,136,59.22Zm-1.11,73.37H63.31V81.94h71.24Z"/><path class="cls-6" d="M87.56,109.28a1.42,1.42,0,0,1,.43,1c-.38,2.53-.8,5.07-1.27,7.54a3.24,3.24,0,0,0,1.18,3.5,3.18,3.18,0,0,0,3.62.11c2.19-1.15,4.41-2.27,6.6-3.46a1.55,1.55,0,0,1,1.61,0c2.25,1.22,4.53,2.4,6.82,3.57a3,3,0,0,0,3.37-.25,3.08,3.08,0,0,0,1.22-3c-.42-2.57-.83-5.12-1.31-7.68a1.21,1.21,0,0,1,.41-1.27c1.89-1.79,3.69-3.59,5.51-5.39A3.15,3.15,0,0,0,114,98.31c-2.44-.38-4.89-.78-7.34-1.07a1.61,1.61,0,0,1-1.43-1c-1.07-2.22-2.2-4.43-3.29-6.65a3.18,3.18,0,0,0-5.89,0c-1.13,2.28-2.24,4.55-3.4,6.8a1.59,1.59,0,0,1-.89.76c-1.77.31-3.56.54-5.34.79L84,98.27a3.2,3.2,0,0,0-2.83,2.16,3.15,3.15,0,0,0,1,3.42C83.93,105.69,85.79,107.46,87.56,109.28Z"/></g></g></g></g></svg>