<svg xmlns="http://www.w3.org/2000/svg" xmlns:xlink="http://www.w3.org/1999/xlink" viewBox="0 0 199.84 297.93"><defs><style>.cls-1{opacity:0.2;fill:url(#radial-gradient);}.cls-2{fill:#dcb647;}.cls-3{fill:#ebebeb;}.cls-4{fill:none;stroke:#000;stroke-linecap:round;stroke-linejoin:round;stroke-width:1.42px;}.cls-5{fill:#fff;}.cls-6{fill:#010101;}</style><radialGradient id="radial-gradient" cx="99.92" cy="281.34" r="65.38" gradientTransform="translate(0 209.96) scale(1 0.25)" gradientUnits="userSpaceOnUse"><stop offset="0"/><stop offset="1" stop-color="#fff" stop-opacity="0"/></radialGradient></defs><title>Hrana_2</title><g id="Layer_2" data-name="Layer 2"><g id="Layer_1-2" data-name="Layer 1"><ellipse class="cls-1" cx="99.92" cy="281.34" rx="65.65" ry="16.59"/><path class="cls-2" d="M99.92,279.07a2.79,2.79,0,0,1-2.39-1.31L25.72,164.64a286.91,286.91,0,0,1-16-29.7c-.08-.16-7.63-17.19-7.63-35.62C2.13,45.73,46,2.13,99.92,2.13s97.8,43.6,97.8,97.19c0,18.45-7.56,35.46-7.63,35.62a286.24,286.24,0,0,1-16,29.7L102.31,277.76A2.79,2.79,0,0,1,99.92,279.07Z"/><path class="cls-3" d="M99.92,3.54c53.14,0,96.38,43,96.38,95.78,0,18.11-7.43,34.88-7.51,35a282.76,282.76,0,0,1-15.89,29.52L101.12,277a1.4,1.4,0,0,1-1.2.66,1.43,1.43,0,0,1-1.2-.66L26.92,163.88a283.49,283.49,0,0,1-15.87-29.52c-.07-.16-7.51-16.93-7.51-35,0-52.81,43.24-95.78,96.38-95.78m0-2.83C45.13.71.71,44.86.71,99.32c0,19,7.75,36.21,7.75,36.21A286.94,286.94,0,0,0,24.53,165.4l71.8,113.12a4.26,4.26,0,0,0,7.18,0L175.3,165.4a288.92,288.92,0,0,0,16.08-29.87s7.75-17.24,7.75-36.21C199.13,44.86,154.71.71,99.92.71Z"/><path class="cls-4" d="M199.13,99.32C199.13,44.86,154.71.71,99.92.71S.71,44.86.71,99.32c0,19,7.75,36.21,7.75,36.21A286.94,286.94,0,0,0,24.53,165.4l71.8,113.12a4.25,4.25,0,0,0,7.18,0L175.3,165.4a288.92,288.92,0,0,0,16.08-29.87S199.13,118.29,199.13,99.32Z"/><circle class="cls-5" cx="99.92" cy="99.92" r="79.06" transform="translate(-30.63 45.84) rotate(-22.5)"/><path class="cls-3" d="M99.92,22.28A77.64,77.64,0,1,1,22.28,99.92,77.73,77.73,0,0,1,99.92,22.28m0-2.84A80.48,80.48,0,1,0,180.4,99.92,80.48,80.48,0,0,0,99.92,19.44Z"/><g id="Layer_2-2" data-name="Layer 2"><g id="Layer_1-2-2" data-name="Layer 1-2"><rect class="cls-6" x="78.42" y="139.2" width="35.87" height="7.84"/><path class="cls-6" d="M123.82,84.44,105.43,97.25s9.18,3.1,15.77-1.69,5.53-9.13,5.09-10.74-1-4.11,0-4.84,10-6.92,10-6.92a4.41,4.41,0,0,0,3.15-.92C140.83,71,158.07,59.46,159,58.55s.41-2.95-.33-3.64-1.61-1-3.18,0-19.73,13.37-20.61,14-.32,1.52-1.61,2.44-9.09,6.48-9.94,7.54S123.82,84.44,123.82,84.44Z"/><path class="cls-6" d="M137.42,101.77H93.54s-1.89-2.07-1.89-3,1.56-1.65,1.56-2.86-1.42-2.54-1.42-3.78,1.29-2.07,1.29-3.59a8.29,8.29,0,0,0-.78-3.09H95V84.16H92.52a6,6,0,0,0,.56-1.2c.09-.41.09-1.15-1.24-1.29s-1.76,1.89-1.76,1.89H88.24s-1.06-1.75-1.62-1.7-.55.79-.55.79a7.91,7.91,0,0,1-1.34-.32c-.64-.23-1.56-1.39-2.72-3.09s-3.78-4-4.84-4H63.59c-1.16,0-.78-1.48-1.62-1.48H37c-2.49,0-2.77,1.15-2.77,2.49s.6,3,2.62,3H61.31a2.62,2.62,0,0,0,2.22-1.33H74c3.4,0,3.6,2.55,5.58,5.16A5.42,5.42,0,0,0,84.66,85a13.14,13.14,0,0,0,.12,1.53c.09.6,1.29,1,1.29,2.07S84.5,90.58,84.5,92s1.57,2,1.57,3.4-1.38,1.84-1.38,3.32a5.74,5.74,0,0,0,1.38,3H55.28s-1,6.73,5.16,18.81a29.75,29.75,0,0,0,17.83,14.93h36.42A41.68,41.68,0,0,0,132.08,121C139,110.67,137.42,101.77,137.42,101.77ZM91,95.06c0,1.44-1.39,2.08-1.39,3.7A5.93,5.93,0,0,0,91,102H88.14a6.5,6.5,0,0,1-1.24-3c0-1.29,1.24-1.48,1.24-3.4S86.9,92.78,86.9,92s1.24-2.17,1.24-3.55a5.17,5.17,0,0,0-1.24-2.81h2.86a6.82,6.82,0,0,1,1.25,3c0,1.29-1.35,1.29-1.35,3.08S91,93.61,91,95.06Z"/></g></g></g></g></svg>