<svg xmlns="http://www.w3.org/2000/svg" xmlns:xlink="http://www.w3.org/1999/xlink" viewBox="0 0 199.84 297.93"><defs><style>.cls-1{opacity:0.2;fill:url(#radial-gradient);}.cls-2{fill:#dcb647;}.cls-3{fill:#ebebeb;}.cls-4{fill:none;stroke:#000;stroke-linecap:round;stroke-linejoin:round;stroke-width:1.42px;}.cls-5{fill:#fff;}.cls-6{fill:#010101;}</style><radialGradient id="radial-gradient" cx="99.92" cy="281.34" r="65.38" gradientTransform="translate(0 209.96) scale(1 0.25)" gradientUnits="userSpaceOnUse"><stop offset="0"/><stop offset="1" stop-color="#fff" stop-opacity="0"/></radialGradient></defs><title>Jahanje</title><g id="Layer_2" data-name="Layer 2"><g id="Layer_1-2" data-name="Layer 1"><ellipse class="cls-1" cx="99.92" cy="281.34" rx="65.65" ry="16.59"/><path class="cls-2" d="M99.92,279.07a2.79,2.79,0,0,1-2.39-1.31L25.72,164.64a286.91,286.91,0,0,1-16-29.7c-.08-.16-7.63-17.19-7.63-35.62C2.13,45.73,46,2.13,99.92,2.13s97.8,43.6,97.8,97.19c0,18.45-7.56,35.46-7.63,35.62a286.24,286.24,0,0,1-16,29.7L102.31,277.76A2.79,2.79,0,0,1,99.92,279.07Z"/><path class="cls-3" d="M99.92,3.54c53.14,0,96.38,43,96.38,95.78,0,18.11-7.43,34.88-7.51,35a282.76,282.76,0,0,1-15.89,29.52L101.12,277a1.4,1.4,0,0,1-1.2.66,1.43,1.43,0,0,1-1.2-.66L26.92,163.88a283.49,283.49,0,0,1-15.87-29.52c-.07-.16-7.51-16.93-7.51-35,0-52.81,43.24-95.78,96.38-95.78m0-2.83C45.13.71.71,44.86.71,99.32c0,19,7.75,36.21,7.75,36.21A286.94,286.94,0,0,0,24.53,165.4l71.8,113.12a4.26,4.26,0,0,0,7.18,0L175.3,165.4a288.92,288.92,0,0,0,16.08-29.87s7.75-17.24,7.75-36.21C199.13,44.86,154.71.71,99.92.71Z"/><path class="cls-4" d="M199.13,99.32C199.13,44.86,154.71.71,99.92.71S.71,44.86.71,99.32c0,19,7.75,36.21,7.75,36.21A286.94,286.94,0,0,0,24.53,165.4l71.8,113.12a4.25,4.25,0,0,0,7.18,0L175.3,165.4a288.92,288.92,0,0,0,16.08-29.87S199.13,118.29,199.13,99.32Z"/><circle class="cls-5" cx="99.92" cy="99.92" r="79.06" transform="translate(-30.63 45.84) rotate(-22.5)"/><path class="cls-3" d="M99.92,22.28A77.64,77.64,0,1,1,22.28,99.92,77.73,77.73,0,0,1,99.92,22.28m0-2.84A80.48,80.48,0,1,0,180.4,99.92,80.48,80.48,0,0,0,99.92,19.44Z"/><path class="cls-6" d="M128.39,112.51l5.35-12.16a16,16,0,0,1-2.9-.42c-5.58-1.4-9.75-5.78-12.64-10.52h-5.51a8.68,8.68,0,0,1-1.09,7.17l-10.92,16.65a8.72,8.72,0,1,1-14.58-9.56l5.37-8.19-6.18-2.85a8.66,8.66,0,0,1-3.68-3.22H78a15.08,15.08,0,0,0-9.87,3.72c-3.71-2.56-17.37-10.71-21.79,4.32-4.63,15.72,6,18.4-2.07,25.52a1.19,1.19,0,0,0-.24,1.5,1.18,1.18,0,0,0,1.41.53c3.84-1.3,9-5.32,10.82-17.28,1.25-8.08,5.22-10.92,8.61-10.67a15.06,15.06,0,0,0-2.1,7.59,15.22,15.22,0,0,0,4.44,10.75l-5.82,8.89-.31.47a3.91,3.91,0,0,0-.63,2.34l1.4,25.46a2.82,2.82,0,0,0,5.58.35l2.8-15.28,4.49,15.56a2.82,2.82,0,0,0,5.52-.91l-1-22.79,6.63-9.61h21.42l4.43,8.86L108.12,152a3,3,0,0,0,5.79,1.55l7.37-19.07,3.65,18.65a2.88,2.88,0,0,0,5.71-.72Z"/><path class="cls-6" d="M105.05,58.93a7.26,7.26,0,1,0-7.26-7.26,7.26,7.26,0,0,0,7.26,7.26Z"/><path class="cls-6" d="M156.84,74.94,143.61,63.85l1.12-10.48a1.09,1.09,0,0,0-.59-1.09,1.08,1.08,0,0,0-1.22.19l-6.07,5.81L132.52,68l-6.86,10.29c2,5,4.84,9.65,8,10.44,1.62.4,3.65-.23,6-1.72l2.59-5.89L148.76,84c-6.12,6.72-11.52,9.57-16,8.43-6.87-1.72-11-12.65-12.63-18.78a3.18,3.18,0,0,0,0-2,3.24,3.24,0,0,0-3-2.13,3.29,3.29,0,0,0-1.11.2l-8.53,3.11-2.88-6.36h0a5.44,5.44,0,0,0-3.23-7l-.59-.22a5.44,5.44,0,0,0-6.82,2.91c-2.09,4.67-5.55,12.35-9.36,20.56a4.85,4.85,0,0,0,2.38,6.44l10.25,4.73-7.83,11.94a4.85,4.85,0,0,0,8.12,5.32l10.92-16.65c.77-1.18,2-5.23-1.78-6.94-2.43-1.11-8.47-3.92-8.47-3.92l3.19-8.54c1.59,3.52,2.12,5.06,4,5.06s5-1.41,11.47-3.82c1.84,6.28,6.31,17.71,15,19.88a12,12,0,0,0,2.92.36c5.53,0,11.57-3.78,18-11.19a5.17,5.17,0,0,0,5-3.09l.52-1.15a5.26,5.26,0,0,0-1.42-6.17Z"/></g></g></svg>