<svg xmlns="http://www.w3.org/2000/svg" xmlns:xlink="http://www.w3.org/1999/xlink" viewBox="0 0 199.84 297.93"><defs><style>.cls-1{opacity:0.2;fill:url(#radial-gradient);}.cls-2{fill:#dcb647;}.cls-3{fill:#ebebeb;}.cls-4{fill:none;stroke:#000;stroke-linecap:round;stroke-linejoin:round;stroke-width:1.42px;}.cls-5{fill:#fff;}.cls-6{fill:#010101;}</style><radialGradient id="radial-gradient" cx="99.92" cy="281.34" r="65.38" gradientTransform="translate(0 209.96) scale(1 0.25)" gradientUnits="userSpaceOnUse"><stop offset="0"/><stop offset="1" stop-color="#fff" stop-opacity="0"/></radialGradient></defs><title>Jezera_2</title><g id="Layer_2" data-name="Layer 2"><g id="Layer_1-2" data-name="Layer 1"><ellipse class="cls-1" cx="99.92" cy="281.34" rx="65.65" ry="16.59"/><path class="cls-2" d="M99.92,279.07a2.79,2.79,0,0,1-2.39-1.31L25.72,164.64a286.91,286.91,0,0,1-16-29.7c-.08-.16-7.63-17.19-7.63-35.62C2.13,45.73,46,2.13,99.92,2.13s97.8,43.6,97.8,97.19c0,18.45-7.56,35.46-7.63,35.62a286.24,286.24,0,0,1-16,29.7L102.31,277.76A2.79,2.79,0,0,1,99.92,279.07Z"/><path class="cls-3" d="M99.92,3.54c53.14,0,96.38,43,96.38,95.78,0,18.11-7.43,34.88-7.51,35a282.76,282.76,0,0,1-15.89,29.52L101.12,277a1.4,1.4,0,0,1-1.2.66,1.43,1.43,0,0,1-1.2-.66L26.92,163.88a283.49,283.49,0,0,1-15.87-29.52c-.07-.16-7.51-16.93-7.51-35,0-52.81,43.24-95.78,96.38-95.78m0-2.83C45.13.71.71,44.86.71,99.32c0,19,7.75,36.21,7.75,36.21A286.94,286.94,0,0,0,24.53,165.4l71.8,113.12a4.26,4.26,0,0,0,7.18,0L175.3,165.4a288.92,288.92,0,0,0,16.08-29.87s7.75-17.24,7.75-36.21C199.13,44.86,154.71.71,99.92.71Z"/><path class="cls-4" d="M199.13,99.32C199.13,44.86,154.71.71,99.92.71S.71,44.86.71,99.32c0,19,7.75,36.21,7.75,36.21A286.94,286.94,0,0,0,24.53,165.4l71.8,113.12a4.25,4.25,0,0,0,7.18,0L175.3,165.4a288.92,288.92,0,0,0,16.08-29.87S199.13,118.29,199.13,99.32Z"/><circle class="cls-5" cx="99.92" cy="99.92" r="79.06" transform="translate(-30.63 45.84) rotate(-22.5)"/><path class="cls-3" d="M99.92,22.28A77.64,77.64,0,1,1,22.28,99.92,77.73,77.73,0,0,1,99.92,22.28m0-2.84A80.48,80.48,0,1,0,180.4,99.92,80.48,80.48,0,0,0,99.92,19.44Z"/><g id="Layer_2-2" data-name="Layer 2"><g id="Layer_1-2-2" data-name="Layer 1-2"><path class="cls-6" d="M129.07,112.66a3,3,0,0,1,4.2-.19l.19.19a.41.41,0,0,0,.57,0h0a.42.42,0,0,0,0-.59h0a3.81,3.81,0,0,0-5.4-.09l-.08.09a3,3,0,0,1-4.19.2,1.89,1.89,0,0,1-.2-.2h0a.42.42,0,0,0-.55.63h0a3.8,3.8,0,0,0,2.72,1.1A3.75,3.75,0,0,0,129.07,112.66Z"/><path class="cls-6" d="M117.54,107.1a3,3,0,0,1,4.18-.2,1.89,1.89,0,0,1,.2.2.42.42,0,0,0,.54-.64,3.77,3.77,0,0,0-2.72-1.09,3.82,3.82,0,0,0-2.72,1.09,3,3,0,0,1-4.18.21c-.07-.07-.14-.13-.21-.21h0a.43.43,0,0,0-.58,0,.42.42,0,0,0,0,.59h0a4.06,4.06,0,0,0,5.49,0Z"/><path class="cls-6" d="M99.55,112.66a3,3,0,0,1,4.18-.2,2,2,0,0,1,.21.2.42.42,0,0,0,.59,0h0a.42.42,0,0,0,0-.59,3.78,3.78,0,0,0-2.72-1.1,3.74,3.74,0,0,0-2.72,1.1,3,3,0,0,1-4.2.19l-.18-.19h0a.42.42,0,0,0-.59.05.41.41,0,0,0,0,.58h0a3.78,3.78,0,0,0,5.35.14l.14-.14Z"/><path class="cls-6" d="M86.91,107.1a3,3,0,0,1,4.2-.19l.19.19a.41.41,0,0,0,.58-.07.43.43,0,0,0,0-.57,3.79,3.79,0,0,0-5.35-.13l-.13.13a3,3,0,0,1-4.18.21c-.07-.07-.14-.13-.21-.21h0a.44.44,0,0,0-.59,0,.43.43,0,0,0,0,.6,3.83,3.83,0,0,0,2.72,1.09A3.73,3.73,0,0,0,86.91,107.1Z"/><path class="cls-6" d="M68.93,112.66a3,3,0,0,1,4.38,0,.42.42,0,0,0,.58,0h0a.41.41,0,0,0,0-.59h0a3.74,3.74,0,0,0-2.72-1.1,3.82,3.82,0,0,0-2.72,1.1,3,3,0,0,1-4.18.2,1.89,1.89,0,0,1-.2-.2h0a.42.42,0,0,0-.59.05.41.41,0,0,0,.05.58,3.79,3.79,0,0,0,5.34.1l.09-.1Z"/><path class="cls-6" d="M132.82,99.47c-9.14-2.19-21.25-3.38-34.09-3.38s-24.94,1.2-34.09,3.38c-11.27,2.67-16.76,6.51-16.76,11.74s5.49,9.07,16.76,11.75c9.15,2.19,21.26,3.37,34.09,3.37s25-1.2,34.09-3.37c11.32-2.68,16.8-6.52,16.8-11.75S144.14,102.14,132.82,99.47Zm12,11.22c0,5.07-18.9,10.72-46.05,10.72s-46.06-5.65-46.06-10.72S71.58,100,98.72,100,144.77,105.62,144.77,110.69Z"/><path class="cls-6" d="M160,102.92a15.92,15.92,0,0,0,1.85-1.42,3.16,3.16,0,0,0,.57-3.91c-.77-1.25-4.06-6-4.06-6a6.9,6.9,0,0,0,1.38-1.26c.69-.81,2.08-1.58.41-3.81q-2.13-3.07-4-6.34a16.76,16.76,0,0,0,1.55-1.36,3.6,3.6,0,0,0,0-4.28c-.89-1.17-8.41-11.58-9.34-12.34a3.29,3.29,0,0,0-4.12.31c-1,1.1-5.48,6.58-5.48,6.58s-5-10.81-6.79-14.25-3.49-3.43-4.83-3.43a3.28,3.28,0,0,0-3.29,2.19c-.77,1.83-12.69,25.56-12.69,25.56s-4.3-8.25-5.48-10.68-2-4-5.08-4S96,69.71,94.54,72.92a27.19,27.19,0,0,1-3.86,6l-1.86-2.81s.72-.81,1.5-1.83a2.53,2.53,0,0,0,0-3.29c-.86-1.33-7.24-10.12-8.41-11.7s-3.74-1.18-4.84.24-6.4,8.37-8.59,10.77a2.91,2.91,0,0,0-.09,4.11,2.54,2.54,0,0,0,.54.44c.36.33,1.41,1,1.09,1.34s-2.8,3.54-3.74,4.72a3.21,3.21,0,0,0,0,3.54c.5.64,1.71,1.74,1.55,2.07s-2,2.72-2,2.72h0C46.38,93.72,33.39,102,33.39,111.44c0,14.19,16.45,25.69,65.18,25.69s65.18-11.5,65.18-25.69A12.85,12.85,0,0,0,160,102.92ZM98.62,132c-44.75,0-59.82-9.42-59.82-21S65.59,89.87,98.62,89.87s59.77,9.38,59.77,21-15.06,21.05-59.82,21.05Z"/></g></g></g></g></svg>