<svg xmlns="http://www.w3.org/2000/svg" xmlns:xlink="http://www.w3.org/1999/xlink" viewBox="0 0 199.84 297.93"><defs><style>.cls-1{opacity:0.2;fill:url(#radial-gradient);}.cls-2{fill:#dcb647;}.cls-3{fill:#ebebeb;}.cls-4{fill:none;stroke:#000;stroke-linecap:round;stroke-linejoin:round;stroke-width:1.42px;}.cls-5{fill:#fff;}.cls-6{fill:#010101;}</style><radialGradient id="radial-gradient" cx="99.92" cy="281.34" r="65.38" gradientTransform="translate(0 209.96) scale(1 0.25)" gradientUnits="userSpaceOnUse"><stop offset="0"/><stop offset="1" stop-color="#fff" stop-opacity="0"/></radialGradient></defs><title>Kanu_2</title><g id="Layer_2" data-name="Layer 2"><g id="Layer_1-2" data-name="Layer 1"><ellipse class="cls-1" cx="99.92" cy="281.34" rx="65.65" ry="16.59"/><path class="cls-2" d="M99.92,279.07a2.79,2.79,0,0,1-2.39-1.31L25.72,164.64a286.91,286.91,0,0,1-16-29.7c-.08-.16-7.63-17.19-7.63-35.62C2.13,45.73,46,2.13,99.92,2.13s97.8,43.6,97.8,97.19c0,18.45-7.56,35.46-7.63,35.62a286.24,286.24,0,0,1-16,29.7L102.31,277.76A2.79,2.79,0,0,1,99.92,279.07Z"/><path class="cls-3" d="M99.92,3.54c53.14,0,96.38,43,96.38,95.78,0,18.11-7.43,34.88-7.51,35a282.76,282.76,0,0,1-15.89,29.52L101.12,277a1.4,1.4,0,0,1-1.2.66,1.43,1.43,0,0,1-1.2-.66L26.92,163.88a283.49,283.49,0,0,1-15.87-29.52c-.07-.16-7.51-16.93-7.51-35,0-52.81,43.24-95.78,96.38-95.78m0-2.83C45.13.71.71,44.86.71,99.32c0,19,7.75,36.21,7.75,36.21A286.94,286.94,0,0,0,24.53,165.4l71.8,113.12a4.26,4.26,0,0,0,7.18,0L175.3,165.4a288.92,288.92,0,0,0,16.08-29.87s7.75-17.24,7.75-36.21C199.13,44.86,154.71.71,99.92.71Z"/><path class="cls-4" d="M199.13,99.32C199.13,44.86,154.71.71,99.92.71S.71,44.86.71,99.32c0,19,7.75,36.21,7.75,36.21A286.94,286.94,0,0,0,24.53,165.4l71.8,113.12a4.25,4.25,0,0,0,7.18,0L175.3,165.4a288.92,288.92,0,0,0,16.08-29.87S199.13,118.29,199.13,99.32Z"/><circle class="cls-5" cx="99.92" cy="99.92" r="79.06" transform="translate(-30.63 45.84) rotate(-22.5)"/><path class="cls-3" d="M99.92,22.28A77.64,77.64,0,1,1,22.28,99.92,77.73,77.73,0,0,1,99.92,22.28m0-2.84A80.48,80.48,0,1,0,180.4,99.92,80.48,80.48,0,0,0,99.92,19.44Z"/><g id="Layer_2-2" data-name="Layer 2"><g id="Layer_1-2-2" data-name="Layer 1-2"><path class="cls-6" d="M89.21,96.05l-7.27,15.1a10.63,10.63,0,0,0-6.21.46,15.43,15.43,0,0,0-5.52,3.51,9.35,9.35,0,0,0-7.71-4.2c-5.61-.32-6.94.41-6.94.41S44.45,104.17,44,94.45s3.1-12.32,5.9-10.77,10.17,5.2,13,6.44a27.86,27.86,0,0,0,4.93,1.69s4.47-17.12,8-19.72,6.71-3,9.54-.45,9.08,8,9.08,8l9.12-4.56s6-12.74,6.77-14.39,3.33-.28,2.79.91-5.57,12.91-5.57,12.91a3.67,3.67,0,0,1,1.64,3.29c-.09,2.28-1.91,3.24-3.19,3.92a19,19,0,0,1-2.83,1.19L87.3,117.63a3.25,3.25,0,0,0,3,1.74c2.23,0,4.56-4.16,9.81-4.16s6.61,3.93,9.76,3.93,3.83-4.25,9.9-4.25,6.21,4.16,10,4.16,4.24-4,10.13-4,6.48,4.29,9.77,4.29,3.27-2.39,5.27-2.21,3.78,3.51,2.55,5.38a9.47,9.47,0,0,1-7.89,3.7c-3.79,0-7.26-4.06-9.86-4.06s-4.24,4.06-10,4.06-7.07-4-9.85-4-3.29,4-10.13,4-5.9-3.87-9.64-3.87-2.6,3.88-9.59,3.88-6.7-4-9.94-4-3.61,4-10.13,4-6.66-4.29-9.86-4.29S57,126.4,51,126.4s-9.08-3.7-9.08-5.48.68-3.33,2.74-3.79,2.83.91,4.42,1.78,3.11.09,4.52-1.14A8.57,8.57,0,0,1,60.47,115c4.1,0,6.34,4.06,9.85,4.06s4.34-3.92,8.4-3.92,5.61.86,5.61.86l14-30.34a30.22,30.22,0,0,1-3.61,1.78,3.47,3.47,0,0,1-3.42-1c-.78-.68-4.93-3.74-4.93-3.74L81.68,95.14Z"/><circle class="cls-6" cx="90.63" cy="61.78" r="8.44"/><path class="cls-6" d="M94.06,112.34l7.55-15.52S119.8,96.46,132,91.9s16.85-8,18.67-8.46,4.14.79,5,4.44.85,11.74-4.19,16.73a76.82,76.82,0,0,1-7.91,7.06,20.16,20.16,0,0,0-5.84-.67c-3.9,0-7.91,3.65-7.91,3.65a17.88,17.88,0,0,0-10.47-3.83,13.93,13.93,0,0,0-9.55,3.83,11.39,11.39,0,0,0-8-3.65A19.48,19.48,0,0,0,94.06,112.34Z"/></g></g></g></g></svg>