<svg xmlns="http://www.w3.org/2000/svg" xmlns:xlink="http://www.w3.org/1999/xlink" viewBox="0 0 199.84 297.93"><defs><style>.cls-1{opacity:0.2;fill:url(#radial-gradient);}.cls-2{fill:#dcb647;}.cls-3{fill:#ebebeb;}.cls-4{fill:none;stroke:#000;stroke-linecap:round;stroke-linejoin:round;stroke-width:1.42px;}.cls-5{fill:#fff;}.cls-6{fill:#010101;}</style><radialGradient id="radial-gradient" cx="99.92" cy="281.34" r="65.38" gradientTransform="translate(0 209.96) scale(1 0.25)" gradientUnits="userSpaceOnUse"><stop offset="0"/><stop offset="1" stop-color="#fff" stop-opacity="0"/></radialGradient></defs><title>Manifestacije_2</title><g id="Layer_2" data-name="Layer 2"><g id="Layer_1-2" data-name="Layer 1"><ellipse class="cls-1" cx="99.92" cy="281.34" rx="65.65" ry="16.59"/><path class="cls-2" d="M99.92,279.07a2.79,2.79,0,0,1-2.39-1.31L25.72,164.64a286.91,286.91,0,0,1-16-29.7c-.08-.16-7.63-17.19-7.63-35.62C2.13,45.73,46,2.13,99.92,2.13s97.8,43.6,97.8,97.19c0,18.45-7.56,35.46-7.63,35.62a286.24,286.24,0,0,1-16,29.7L102.31,277.76A2.79,2.79,0,0,1,99.92,279.07Z"/><path class="cls-3" d="M99.92,3.54c53.14,0,96.38,43,96.38,95.78,0,18.11-7.43,34.88-7.51,35a282.76,282.76,0,0,1-15.89,29.52L101.12,277a1.4,1.4,0,0,1-1.2.66,1.43,1.43,0,0,1-1.2-.66L26.92,163.88a283.49,283.49,0,0,1-15.87-29.52c-.07-.16-7.51-16.93-7.51-35,0-52.81,43.24-95.78,96.38-95.78m0-2.83C45.13.71.71,44.86.71,99.32c0,19,7.75,36.21,7.75,36.21A286.94,286.94,0,0,0,24.53,165.4l71.8,113.12a4.26,4.26,0,0,0,7.18,0L175.3,165.4a288.92,288.92,0,0,0,16.08-29.87s7.75-17.24,7.75-36.21C199.13,44.86,154.71.71,99.92.71Z"/><path class="cls-4" d="M199.13,99.32C199.13,44.86,154.71.71,99.92.71S.71,44.86.71,99.32c0,19,7.75,36.21,7.75,36.21A286.94,286.94,0,0,0,24.53,165.4l71.8,113.12a4.25,4.25,0,0,0,7.18,0L175.3,165.4a288.92,288.92,0,0,0,16.08-29.87S199.13,118.29,199.13,99.32Z"/><circle class="cls-5" cx="99.92" cy="99.92" r="79.06" transform="translate(-30.63 45.84) rotate(-22.5)"/><path class="cls-3" d="M99.92,22.28A77.64,77.64,0,1,1,22.28,99.92,77.73,77.73,0,0,1,99.92,22.28m0-2.84A80.48,80.48,0,1,0,180.4,99.92,80.48,80.48,0,0,0,99.92,19.44Z"/><g id="Layer_2-2" data-name="Layer 2"><g id="Layer_1-2-2" data-name="Layer 1-2"><path class="cls-6" d="M86.64,58v6.4h29.59s.08,3.81,3,3.81,3.57-1.84,3.57-3.85V53.64c0-1.68-2.15-2.54-3.57-2.54a2.93,2.93,0,0,0-3,2.64v4.38Z"/><path class="cls-6" d="M103.89,133.84a19.77,19.77,0,0,0,.76,3.67c.45,1,1.27,3.13,1.27,3.13H64.71c-5,0-11.14-3-11.14-10.53V68.54c0-4.11,3.35-10.35,8.07-10.35H74.15V54.05a3.32,3.32,0,0,1,3.46-3c1.64,0,3.24.61,3.24,2.63V66.18c0,1.32-1.43,1.92-3.08,1.92s-3.18-1.25-3.18-2.2V64.32H63c-1.53,0-2.74,1.86-2.74,3.4v7.73h76.38V67.27a3.2,3.2,0,0,0-3.41-3h-5.38V58h6c2.58,0,9.33,2.39,9.33,8.23v35.76a29.78,29.78,0,0,0-3.68-1.19c-1.7-.38-2.84-.55-2.84-.55V80.55H60.33v49.32c0,3.2,1.65,3.91,3.08,3.91Z"/><path class="cls-6" d="M132.8,126.77s20.19-14.93,23.41-17,3.58-.44,1.61,2.55-20.34,23.71-23.55,25.7-4.61.14-6.07-2.38-6.3-11.57-7-13.39-.16-2.56,1.19-2.05S132.8,126.77,132.8,126.77Z"/><path class="cls-6" d="M153.18,125.19a19.88,19.88,0,0,1,.53,4.68,20.62,20.62,0,1,1-9.54-17.42h0l3.85-3.07a25.33,25.33,0,1,0,10.46,20.49,25.64,25.64,0,0,0-1.49-8.5Z"/><rect class="cls-6" x="68.16" y="113.69" width="15.09" height="11.53" rx="4.26"/><rect class="cls-6" x="90.83" y="93.39" width="15.09" height="11.53" rx="4.26"/><rect class="cls-6" x="68.16" y="93.39" width="15.09" height="11.53" rx="4.26"/><path class="cls-6" d="M105.92,116.23v-.66a1.87,1.87,0,0,0-1.85-1.88H92.7a1.87,1.87,0,0,0-1.87,1.88v7.79a1.86,1.86,0,0,0,1.86,1.86h10.37A30.34,30.34,0,0,1,105.92,116.23Z"/><path class="cls-6" d="M115.36,104.92h.36a30.34,30.34,0,0,1,12.86-5.14V95.27a1.87,1.87,0,0,0-1.85-1.88H115.36a1.88,1.88,0,0,0-1.87,1.88v7.78a1.87,1.87,0,0,0,1.87,1.87Z"/></g></g></g></g></svg>