<svg xmlns="http://www.w3.org/2000/svg" xmlns:xlink="http://www.w3.org/1999/xlink" viewBox="0 0 199.84 297.93"><defs><style>.cls-1{opacity:0.2;fill:url(#radial-gradient);}.cls-2{fill:#dcb647;}.cls-3{fill:#ebebeb;}.cls-4{fill:none;stroke:#000;stroke-linecap:round;stroke-linejoin:round;stroke-width:1.42px;}.cls-5{fill:#fff;}.cls-6{fill:#010101;}</style><radialGradient id="radial-gradient" cx="99.92" cy="281.34" r="65.38" gradientTransform="translate(0 209.96) scale(1 0.25)" gradientUnits="userSpaceOnUse"><stop offset="0"/><stop offset="1" stop-color="#fff" stop-opacity="0"/></radialGradient></defs><title>Muzeji_2</title><g id="Layer_2" data-name="Layer 2"><g id="Layer_1-2" data-name="Layer 1"><ellipse class="cls-1" cx="99.92" cy="281.34" rx="65.65" ry="16.59"/><path class="cls-2" d="M99.92,279.07a2.79,2.79,0,0,1-2.39-1.31L25.72,164.64a286.91,286.91,0,0,1-16-29.7c-.08-.16-7.63-17.19-7.63-35.62C2.13,45.73,46,2.13,99.92,2.13s97.8,43.6,97.8,97.19c0,18.45-7.56,35.46-7.63,35.62a286.24,286.24,0,0,1-16,29.7L102.31,277.76A2.79,2.79,0,0,1,99.92,279.07Z"/><path class="cls-3" d="M99.92,3.54c53.14,0,96.38,43,96.38,95.78,0,18.11-7.43,34.88-7.51,35a282.76,282.76,0,0,1-15.89,29.52L101.12,277a1.4,1.4,0,0,1-1.2.66,1.43,1.43,0,0,1-1.2-.66L26.92,163.88a283.49,283.49,0,0,1-15.87-29.52c-.07-.16-7.51-16.93-7.51-35,0-52.81,43.24-95.78,96.38-95.78m0-2.83C45.13.71.71,44.86.71,99.32c0,19,7.75,36.21,7.75,36.21A286.94,286.94,0,0,0,24.53,165.4l71.8,113.12a4.26,4.26,0,0,0,7.18,0L175.3,165.4a288.92,288.92,0,0,0,16.08-29.87s7.75-17.24,7.75-36.21C199.13,44.86,154.71.71,99.92.71Z"/><path class="cls-4" d="M199.13,99.32C199.13,44.86,154.71.71,99.92.71S.71,44.86.71,99.32c0,19,7.75,36.21,7.75,36.21A286.94,286.94,0,0,0,24.53,165.4l71.8,113.12a4.25,4.25,0,0,0,7.18,0L175.3,165.4a288.92,288.92,0,0,0,16.08-29.87S199.13,118.29,199.13,99.32Z"/><circle class="cls-5" cx="99.92" cy="99.92" r="79.06" transform="translate(-30.63 45.84) rotate(-22.5)"/><path class="cls-3" d="M99.92,22.28A77.64,77.64,0,1,1,22.28,99.92,77.73,77.73,0,0,1,99.92,22.28m0-2.84A80.48,80.48,0,1,0,180.4,99.92,80.48,80.48,0,0,0,99.92,19.44Z"/><g id="Layer_2-2" data-name="Layer 2"><g id="Layer_1-2-2" data-name="Layer 1-2"><path class="cls-6" d="M143.94,84.9V79.19h3.2V74.28L102.53,44,57.92,73.59v5.6h2.8V84.9h2.6v50.27h-2.6v5.29h-3.6v5.23h89.82V140.5h-3v-5.33h-2.65V84.9Zm-30.31-5.71V84.9h2.61v50.27h-2.61v5.29h-3.9V113.4H94.83v27.1h-3.6v-5.33H88.69V84.9h2.6V79.19Zm-42.81,56V84.9h2.67V79.19h5.1V84.9h2.59v50.27H78.53v5.29h-5v-5.29Zm63,0h-2.59v5.29h-4.9v-5.29h-2.58V84.9h2.6V79.19h4.88V84.9h2.59Z"/><rect class="cls-6" x="105.03" y="88" width="7.4" height="13.5"/><rect class="cls-6" x="91.92" y="88" width="7.4" height="13.5"/></g></g></g></g></svg>