<svg xmlns="http://www.w3.org/2000/svg" xmlns:xlink="http://www.w3.org/1999/xlink" viewBox="0 0 199.84 297.93"><defs><style>.cls-1{opacity:0.2;fill:url(#radial-gradient);}.cls-2{fill:#dcb647;}.cls-3{fill:#ebebeb;}.cls-4{fill:none;stroke:#000;stroke-linecap:round;stroke-linejoin:round;stroke-width:1.42px;}.cls-5{fill:#fff;}.cls-6{fill:#010101;}</style><radialGradient id="radial-gradient" cx="99.92" cy="281.34" r="65.38" gradientTransform="translate(0 209.96) scale(1 0.25)" gradientUnits="userSpaceOnUse"><stop offset="0"/><stop offset="1" stop-color="#fff" stop-opacity="0"/></radialGradient></defs><title>Naslijedje_2</title><g id="Layer_2" data-name="Layer 2"><g id="Layer_1-2" data-name="Layer 1"><ellipse class="cls-1" cx="99.92" cy="281.34" rx="65.65" ry="16.59"/><path class="cls-2" d="M99.92,279.07a2.79,2.79,0,0,1-2.39-1.31L25.72,164.64a286.91,286.91,0,0,1-16-29.7c-.08-.16-7.63-17.19-7.63-35.62C2.13,45.73,46,2.13,99.92,2.13s97.8,43.6,97.8,97.19c0,18.45-7.56,35.46-7.63,35.62a286.24,286.24,0,0,1-16,29.7L102.31,277.76A2.79,2.79,0,0,1,99.92,279.07Z"/><path class="cls-3" d="M99.92,3.54c53.14,0,96.38,43,96.38,95.78,0,18.11-7.43,34.88-7.51,35a282.76,282.76,0,0,1-15.89,29.52L101.12,277a1.4,1.4,0,0,1-1.2.66,1.43,1.43,0,0,1-1.2-.66L26.92,163.88a283.49,283.49,0,0,1-15.87-29.52c-.07-.16-7.51-16.93-7.51-35,0-52.81,43.24-95.78,96.38-95.78m0-2.83C45.13.71.71,44.86.71,99.32c0,19,7.75,36.21,7.75,36.21A286.94,286.94,0,0,0,24.53,165.4l71.8,113.12a4.26,4.26,0,0,0,7.18,0L175.3,165.4a288.92,288.92,0,0,0,16.08-29.87s7.75-17.24,7.75-36.21C199.13,44.86,154.71.71,99.92.71Z"/><path class="cls-4" d="M199.13,99.32C199.13,44.86,154.71.71,99.92.71S.71,44.86.71,99.32c0,19,7.75,36.21,7.75,36.21A286.94,286.94,0,0,0,24.53,165.4l71.8,113.12a4.25,4.25,0,0,0,7.18,0L175.3,165.4a288.92,288.92,0,0,0,16.08-29.87S199.13,118.29,199.13,99.32Z"/><circle class="cls-5" cx="99.92" cy="99.92" r="79.06" transform="translate(-30.63 45.84) rotate(-22.5)"/><path class="cls-3" d="M99.92,22.28A77.64,77.64,0,1,1,22.28,99.92,77.73,77.73,0,0,1,99.92,22.28m0-2.84A80.48,80.48,0,1,0,180.4,99.92,80.48,80.48,0,0,0,99.92,19.44Z"/><g id="Layer_2-2" data-name="Layer 2"><g id="Layer_1-2-2" data-name="Layer 1-2"><path class="cls-6" d="M114.2,148.15l3.81-8,21.59,10.29-3.81,8Z"/><path class="cls-6" d="M148.73,84.8h0l.34,13.9a9.36,9.36,0,0,1,1.79.66,1.86,1.86,0,0,1,.88,2.49h0l-8.12,17.06a1.88,1.88,0,0,1-3.39-1.62l7.22-15.06a6.67,6.67,0,0,0-7.08,3.72l-4.92,10.37a15.63,15.63,0,0,1-4.31,5.44l-1,.82a17.18,17.18,0,0,0-6.24,16.19l14.26,6.79-.22-1.28a.6.6,0,0,1,0-.19,9,9,0,0,1,2.07-6.48L152.9,122a17.69,17.69,0,0,0,3.27-10.37l-5-31.12A4.56,4.56,0,0,0,148.73,84.8Z"/><path class="cls-6" d="M61.68,144.1a.6.6,0,0,1,0,.19l-.23,1.28,14.26-6.79a17.15,17.15,0,0,0-6.26-16.19l-1-.82a15.72,15.72,0,0,1-4.3-5.44l-5-10.38a6.68,6.68,0,0,0-7.06-3.71l7.2,15.12A1.87,1.87,0,0,1,55.91,119h0l-8.13-17.07a1.87,1.87,0,0,1,.88-2.5h0a9.53,9.53,0,0,1,1.78-.66l.34-13.9h0a4.56,4.56,0,0,0-2.42-4.27l-4.92,31.07A17.77,17.77,0,0,0,46.73,122l12.89,15.6A9.06,9.06,0,0,1,61.68,144.1Z"/><path class="cls-6" d="M59.94,150.44l21.59-10.28,3.8,8L63.75,158.43Z"/><rect class="cls-6" x="106.73" y="61.81" width="2.41" height="21.7"/><rect class="cls-6" x="112.89" y="61.81" width="5.09" height="21.7"/><rect class="cls-6" x="121.74" y="61.81" width="2.68" height="21.7"/><path class="cls-6" d="M104.17,48.47a4.41,4.41,0,1,1-4.41-4.41h0a4.4,4.4,0,0,1,4.4,4.4Z"/><path class="cls-6" d="M99.77,33.24,71.58,58.06H128Zm0,23.39a8.16,8.16,0,1,1,8.15-8.17h0A8.17,8.17,0,0,1,99.77,56.63Z"/><rect class="cls-6" x="69.5" y="87.26" width="60.54" height="2.14"/><rect class="cls-6" x="96.55" y="61.81" width="6.43" height="21.7"/><rect class="cls-6" x="75.12" y="61.81" width="2.68" height="21.7"/><rect class="cls-6" x="64.94" y="93.15" width="69.65" height="2.95"/><rect class="cls-6" x="90.39" y="61.81" width="2.41" height="21.7"/><rect class="cls-6" x="81.55" y="61.81" width="5.09" height="21.7"/></g></g></g></g></svg>