<svg xmlns="http://www.w3.org/2000/svg" xmlns:xlink="http://www.w3.org/1999/xlink" viewBox="0 0 199.84 297.93"><defs><style>.cls-1{opacity:0.2;fill:url(#radial-gradient);}.cls-2{fill:#dcb647;}.cls-3{fill:#ebebeb;}.cls-4{fill:none;stroke:#000;stroke-linecap:round;stroke-linejoin:round;stroke-width:1.42px;}.cls-5{fill:#fff;}.cls-6{fill:#010101;}</style><radialGradient id="radial-gradient" cx="99.92" cy="281.34" r="65.38" gradientTransform="translate(0 209.96) scale(1 0.25)" gradientUnits="userSpaceOnUse"><stop offset="0"/><stop offset="1" stop-color="#fff" stop-opacity="0"/></radialGradient></defs><title>Nekropole_stecaka_2</title><g id="Layer_2" data-name="Layer 2"><g id="Layer_1-2" data-name="Layer 1"><ellipse class="cls-1" cx="99.92" cy="281.34" rx="65.65" ry="16.59"/><path class="cls-2" d="M99.92,279.07a2.79,2.79,0,0,1-2.39-1.31L25.72,164.64a286.91,286.91,0,0,1-16-29.7c-.08-.16-7.63-17.19-7.63-35.62C2.13,45.73,46,2.13,99.92,2.13s97.8,43.6,97.8,97.19c0,18.45-7.56,35.46-7.63,35.62a286.24,286.24,0,0,1-16,29.7L102.31,277.76A2.79,2.79,0,0,1,99.92,279.07Z"/><path class="cls-3" d="M99.92,3.54c53.14,0,96.38,43,96.38,95.78,0,18.11-7.43,34.88-7.51,35a282.76,282.76,0,0,1-15.89,29.52L101.12,277a1.4,1.4,0,0,1-1.2.66,1.43,1.43,0,0,1-1.2-.66L26.92,163.88a283.49,283.49,0,0,1-15.87-29.52c-.07-.16-7.51-16.93-7.51-35,0-52.81,43.24-95.78,96.38-95.78m0-2.83C45.13.71.71,44.86.71,99.32c0,19,7.75,36.21,7.75,36.21A286.94,286.94,0,0,0,24.53,165.4l71.8,113.12a4.26,4.26,0,0,0,7.18,0L175.3,165.4a288.92,288.92,0,0,0,16.08-29.87s7.75-17.24,7.75-36.21C199.13,44.86,154.71.71,99.92.71Z"/><path class="cls-4" d="M199.13,99.32C199.13,44.86,154.71.71,99.92.71S.71,44.86.71,99.32c0,19,7.75,36.21,7.75,36.21A286.94,286.94,0,0,0,24.53,165.4l71.8,113.12a4.25,4.25,0,0,0,7.18,0L175.3,165.4a288.92,288.92,0,0,0,16.08-29.87S199.13,118.29,199.13,99.32Z"/><circle class="cls-5" cx="99.92" cy="99.92" r="79.06" transform="translate(-30.63 45.84) rotate(-22.5)"/><path class="cls-3" d="M99.92,22.28A77.64,77.64,0,1,1,22.28,99.92,77.73,77.73,0,0,1,99.92,22.28m0-2.84A80.48,80.48,0,1,0,180.4,99.92,80.48,80.48,0,0,0,99.92,19.44Z"/><g id="Layer_2-2" data-name="Layer 2"><g id="Layer_1-2-2" data-name="Layer 1-2"><path class="cls-6" d="M95.06,35.33,62.44,50.88a1.49,1.49,0,0,0-.85,1.45L68.75,160a1.49,1.49,0,0,0,1.49,1.4H129.6a1.49,1.49,0,0,0,1.49-1.4l7.16-107.68a1.5,1.5,0,0,0-.84-1.45L104.78,35.33A11.33,11.33,0,0,0,95.06,35.33Zm21.74,68.94c-2.08,1.21-7.18,3.52-9.55,4.58a1.48,1.48,0,0,0-.8,1.85l3.42,9.87a1.49,1.49,0,0,0,.67.81,6,6,0,0,1,.73.51c.6.47.54,2.08,0,2.08-.24,0-1,0-1.7-.08a1.49,1.49,0,0,0-1.57,1.65c.32,3,.92,8.78.88,9.83-.06,1.43-5.33,13.08-5.33,13.08a8,8,0,0,1,1.54-.9c.36-.13.86.23,1.26.67a1.48,1.48,0,0,1-.16,2.14,2.27,2.27,0,0,1-.79.4,1.4,1.4,0,0,1-.61,0,23.83,23.83,0,0,1-3.44-.9,1.48,1.48,0,0,1-1-1.44c0-.66.11-1.54.13-2.49.05-1.61,2.63-9.14,3.22-10.87a1.34,1.34,0,0,0,.06-.74l-1.69-10a1.49,1.49,0,0,0-1.47-1.25H100a1.49,1.49,0,0,0-1.38.94l-3.73,9.18a1.46,1.46,0,0,0-.11.65c.13,2.16.84,14.07.52,15.31s-1.67.78-3.1.66-4.37-2.16-4.37-2.16c-.67-.45-.54-1.55.43-2,.6-.3,1.83-1,2.66-1.43a1.51,1.51,0,0,0,.76-1.45c-.23-2.35-.77-8.27-.68-9.6s1.19-6.33,1.76-8.89a1.53,1.53,0,0,0-.93-1.72c-.28-.12-.48-.31-.41-.62.16-.74,3.34-9.11,4.08-11a1.47,1.47,0,0,0,.06-.83c-.13-.6-.23-1.21-.3-1.82a1.7,1.7,0,0,1,0-.39,3.89,3.89,0,0,1,.51-1.48,1.31,1.31,0,0,0,.16-1c-.45-2.82-2.37-14.79-2.59-15.53s-1.38-.36-2,.84-5,10.74-5.91,11.1-1.38,0-1.92-1.37-4.35-14.61-5.24-18.67S75,70.72,74.36,67.92a41,41,0,0,1-.72-8.12c.06-1.44.72-1.67,1-1.38s1.07,6.46,1.13,7,.6.3.54,0-.54-6.87-.54-7.46.91-.54,1.22-.13a44.68,44.68,0,0,1,1,6.69,1,1,0,0,0,.9.9s-.06-6.8,0-7.63a.76.76,0,0,1,.71-.8.74.74,0,0,1,.66.31c.47.53.29,4.18.47,6s.91,1.84.91,1.84.53-5.13.53-5.72.89-.43,1.14.11a60.37,60.37,0,0,1,.2,8.18v0A1.49,1.49,0,0,0,86,68.9a7.9,7.9,0,0,1,1.85-1.64c.7-.14,1,.72.6,1.38a59.66,59.66,0,0,1-3.66,5.13A10,10,0,0,1,82.39,76a1.47,1.47,0,0,0-.64,1.6c.64,2.59,2.24,9,2.48,9.24a1.22,1.22,0,0,0,1,.12s6-7.76,7.32-8.77a1.91,1.91,0,0,1,1.68-.53,1.43,1.43,0,0,0,.82,0l1.58-.56a1.49,1.49,0,0,0,1-1.41V72.13a1.54,1.54,0,0,0-.1-.51,17.25,17.25,0,0,1-1.12-5.78,16.51,16.51,0,0,1,1-5.65,1.53,1.53,0,0,0,.07-.29,20,20,0,0,1,.44-2.55,1.49,1.49,0,0,1,1.43-1.12c.37,0,.73,0,.93,0a1.08,1.08,0,0,0,.31,0,6.47,6.47,0,0,1,2.28,0c1.22.3.84.72.84.72l1.55.29c.66.12,1,.3,1.13,1.61s-1,6.43-1.47,8.55l0,.11A28.79,28.79,0,0,1,103,72.38a1.44,1.44,0,0,0-.15.65V74.7a1.5,1.5,0,0,0,.94,1.39c2,.78,6.52,2.62,8.14,3.87,2.08,1.61,3.16,4.72,5,8.13s4.77,8.23,5.08,10.08S119.54,102.66,116.8,104.27Zm10.3-38c-.66.65-3.1,4.47-4,5.9a1.47,1.47,0,0,0-.18,1.16L124,77.54c1.22,4.8.09,13.12-.27,14.19s-1.22.27-1.22.27a5.13,5.13,0,0,1-.94-.22c-.53-.18-.94-2.11-2.44-5.55S110.37,70.37,110,68.77a1.91,1.91,0,0,1,.14-1.52,1.44,1.44,0,0,0,.14-1.2,11.51,11.51,0,0,1-.36-2c.14-.48.75,0,5.72,2.1A10.24,10.24,0,0,1,120.49,70a1.48,1.48,0,0,0,2.54-.07c1.51-2.66,3.78-6.5,4.31-6.53.8,0,1.07.17,1.29,1.11S127.9,65.5,127.1,66.31Z"/><path class="cls-6" d="M111.33,90.43a1.5,1.5,0,0,0-2.59.52c-.7,2.41-1.29,4.86-1.77,7.33-.67,4-1.22,4.79-.76,5.21s1.79-1.54,3.94-2.93c1.29-.84,2.74-1.71,3.68-2.27a1.47,1.47,0,0,0,.66-1.75,27.51,27.51,0,0,0-2.31-5A9.58,9.58,0,0,0,111.33,90.43Z"/><path class="cls-6" d="M116.43,69.17A13.1,13.1,0,0,0,111.55,68c-.57,0-1.07.27-.76.81s4.42,8.19,4.7,8.56.51.93,1,.52,2.21-2.67,3.2-3.92a1.49,1.49,0,0,0,.11-1.71A8.25,8.25,0,0,0,116.43,69.17Z"/><path class="cls-6" d="M119,77l-1.25,1.73a1.51,1.51,0,0,0-.11,1.57c.46.87,1.19,2.28,1.77,3.43.9,1.81,2.77,6.27,3.13,6.1s.44-1.22.17-5.69a39.34,39.34,0,0,0-1-6.65A1.49,1.49,0,0,0,119,77Z"/></g></g></g></g></svg>