<svg xmlns="http://www.w3.org/2000/svg" xmlns:xlink="http://www.w3.org/1999/xlink" viewBox="0 0 199.84 297.93"><defs><style>.cls-1{opacity:0.2;fill:url(#radial-gradient);}.cls-2{fill:#dcb647;}.cls-3{fill:#ebebeb;}.cls-4{fill:none;stroke:#000;stroke-linecap:round;stroke-linejoin:round;stroke-width:1.42px;}.cls-5{fill:#fff;}.cls-6{fill:#010101;}</style><radialGradient id="radial-gradient" cx="99.92" cy="281.34" r="65.38" gradientTransform="translate(0 209.96) scale(1 0.25)" gradientUnits="userSpaceOnUse"><stop offset="0"/><stop offset="1" stop-color="#fff" stop-opacity="0"/></radialGradient></defs><title>Paraglajding_2</title><g id="Layer_2" data-name="Layer 2"><g id="Layer_1-2" data-name="Layer 1"><ellipse class="cls-1" cx="99.92" cy="281.34" rx="65.65" ry="16.59"/><path class="cls-2" d="M99.92,279.07a2.79,2.79,0,0,1-2.39-1.31L25.72,164.64a286.91,286.91,0,0,1-16-29.7c-.08-.16-7.63-17.19-7.63-35.62C2.13,45.73,46,2.13,99.92,2.13s97.8,43.6,97.8,97.19c0,18.45-7.56,35.46-7.63,35.62a286.24,286.24,0,0,1-16,29.7L102.31,277.76A2.79,2.79,0,0,1,99.92,279.07Z"/><path class="cls-3" d="M99.92,3.54c53.14,0,96.38,43,96.38,95.78,0,18.11-7.43,34.88-7.51,35a282.76,282.76,0,0,1-15.89,29.52L101.12,277a1.4,1.4,0,0,1-1.2.66,1.43,1.43,0,0,1-1.2-.66L26.92,163.88a283.49,283.49,0,0,1-15.87-29.52c-.07-.16-7.51-16.93-7.51-35,0-52.81,43.24-95.78,96.38-95.78m0-2.83C45.13.71.71,44.86.71,99.32c0,19,7.75,36.21,7.75,36.21A286.94,286.94,0,0,0,24.53,165.4l71.8,113.12a4.26,4.26,0,0,0,7.18,0L175.3,165.4a288.92,288.92,0,0,0,16.08-29.87s7.75-17.24,7.75-36.21C199.13,44.86,154.71.71,99.92.71Z"/><path class="cls-4" d="M199.13,99.32C199.13,44.86,154.71.71,99.92.71S.71,44.86.71,99.32c0,19,7.75,36.21,7.75,36.21A286.94,286.94,0,0,0,24.53,165.4l71.8,113.12a4.25,4.25,0,0,0,7.18,0L175.3,165.4a288.92,288.92,0,0,0,16.08-29.87S199.13,118.29,199.13,99.32Z"/><circle class="cls-5" cx="99.92" cy="99.92" r="79.06" transform="translate(-30.63 45.84) rotate(-22.5)"/><path class="cls-3" d="M99.92,22.28A77.64,77.64,0,1,1,22.28,99.92,77.73,77.73,0,0,1,99.92,22.28m0-2.84A80.48,80.48,0,1,0,180.4,99.92,80.48,80.48,0,0,0,99.92,19.44Z"/><g id="Layer_2-2" data-name="Layer 2"><g id="Layer_1-2-2" data-name="Layer 1-2"><path class="cls-6" d="M115.15,140.38h0l-8.28-13h0a3.83,3.83,0,0,0-3.2-1.71,4.28,4.28,0,0,0-.87.09h0l-13.39,3.36L84,119.66l5.21,1.18h.13a4.14,4.14,0,0,0,.7.06,3.81,3.81,0,0,0,1.95-.53h0l8.84-3.75h0A3.84,3.84,0,0,0,99.64,109a3.92,3.92,0,0,0-1,.29h0L90,113.24a3.88,3.88,0,0,0-1.07.14h0l-13-3.71h0a7.94,7.94,0,0,0-11.15,7.27,7.67,7.67,0,0,0,.33,2.23h0a7.86,7.86,0,0,0,1.75,3.09l7.07,12.58A8.49,8.49,0,0,0,74.5,136h0a8,8,0,0,0,10.33,2.52h0c.19-.11,16.9-5.46,16.9-5.46l7,11.46h0a3.84,3.84,0,0,0,6.39-4.26h0Z"/><path class="cls-6" d="M96.37,141.77c-1.19-.92-5.33-3.2-5.33-3.2l-6.29,3.29a3.66,3.66,0,0,1-1.36.39c.14,0,6.76,4.39,6.76,4.39L88.42,155a3.5,3.5,0,0,0-.12.63h0v.44a3.84,3.84,0,0,0,7.46,1.29h0a4,4,0,0,0,.21-1.28v-.15c.45-3,1.45-9.77,1.6-10.75A3.4,3.4,0,0,0,96.37,141.77Z"/><circle class="cls-6" cx="62.26" cy="100.51" r="8.21"/><path class="cls-6" d="M156,65.72C152.72,62,134.11,44.47,99.61,44.47S46.29,64.27,44.78,68.54s-1.06,5.33.73,7.25c1.4,1.49,5.41,5.15,7.09,6.68a9.45,9.45,0,0,0,.75.67h0A8.21,8.21,0,0,0,58.47,85a8.08,8.08,0,0,0,4-1.06h0a8.66,8.66,0,0,0,2-1.63,67.75,67.75,0,0,1,9.24-5.83l21.89,31.89a6.39,6.39,0,0,1,4.4-2L87.88,71A56.7,56.7,0,0,1,102,69.18a54.63,54.63,0,0,1,12.48,1.45l-12,36.08a6.5,6.5,0,0,1,3.58,3l23.06-33.22-.64-.52a55.86,55.86,0,0,1,9.66,6.52,8.32,8.32,0,0,0,1.32,1.2h0a8.18,8.18,0,0,0,9.88-.22h0a7.55,7.55,0,0,0,1.18-1.15c2.06-2,6.16-6,7.25-7.11C159.26,73.72,159.21,69.39,156,65.72ZM97,106,75.71,75.47a65.73,65.73,0,0,1,9.64-3.77Zm8.25-.1,11.47-34.61-.32-.18A57.5,57.5,0,0,1,126.65,75Z"/></g></g></g></g></svg>