<svg xmlns="http://www.w3.org/2000/svg" xmlns:xlink="http://www.w3.org/1999/xlink" viewBox="0 0 199.84 297.08"><defs><style>.cls-1{opacity:0.2;fill:url(#radial-gradient);}.cls-2{fill:#dcb647;}.cls-3{fill:#ebebeb;}.cls-4{fill:none;stroke:#000;stroke-linecap:round;stroke-linejoin:round;stroke-width:1.42px;}.cls-5{fill:#fff;}.cls-6{fill:#010101;}</style><radialGradient id="radial-gradient" cx="99.92" cy="280.49" r="65.38" gradientTransform="translate(0 209.33) scale(1 0.25)" gradientUnits="userSpaceOnUse"><stop offset="0"/><stop offset="1" stop-color="#fff" stop-opacity="0"/></radialGradient></defs><title>Penjanje_2</title><g id="Layer_2" data-name="Layer 2"><g id="Layer_1-2" data-name="Layer 1"><ellipse class="cls-1" cx="99.92" cy="280.49" rx="65.65" ry="16.59"/><path class="cls-2" d="M99.92,279.07a2.79,2.79,0,0,1-2.39-1.31L25.72,164.64a286.91,286.91,0,0,1-16-29.7c-.08-.16-7.63-17.19-7.63-35.62C2.13,45.73,46,2.13,99.92,2.13s97.8,43.6,97.8,97.19c0,18.45-7.56,35.46-7.63,35.62a286.24,286.24,0,0,1-16,29.7L102.31,277.76A2.79,2.79,0,0,1,99.92,279.07Z"/><path class="cls-3" d="M99.92,3.54c53.14,0,96.38,43,96.38,95.78,0,18.11-7.43,34.88-7.51,35a282.76,282.76,0,0,1-15.89,29.52L101.12,277a1.4,1.4,0,0,1-1.2.66,1.43,1.43,0,0,1-1.2-.66L26.92,163.88a283.49,283.49,0,0,1-15.87-29.52c-.07-.16-7.51-16.93-7.51-35,0-52.81,43.24-95.78,96.38-95.78m0-2.83C45.13.71.71,44.86.71,99.32c0,19,7.75,36.21,7.75,36.21A286.94,286.94,0,0,0,24.53,165.4l71.8,113.12a4.26,4.26,0,0,0,7.18,0L175.3,165.4a288.92,288.92,0,0,0,16.08-29.87s7.75-17.24,7.75-36.21C199.13,44.86,154.71.71,99.92.71Z"/><path class="cls-4" d="M199.13,99.32C199.13,44.86,154.71.71,99.92.71S.71,44.86.71,99.32c0,19,7.75,36.21,7.75,36.21A286.94,286.94,0,0,0,24.53,165.4l71.8,113.12a4.25,4.25,0,0,0,7.18,0L175.3,165.4a288.92,288.92,0,0,0,16.08-29.87S199.13,118.29,199.13,99.32Z"/><circle class="cls-5" cx="99.92" cy="99.92" r="79.06" transform="translate(-30.63 45.84) rotate(-22.5)"/><path class="cls-3" d="M99.92,22.28A77.64,77.64,0,1,1,22.28,99.92,77.73,77.73,0,0,1,99.92,22.28m0-2.84A80.48,80.48,0,1,0,180.4,99.92,80.48,80.48,0,0,0,99.92,19.44Z"/><g id="Layer_2-2" data-name="Layer 2"><g id="Layer_1-2-2" data-name="Layer 1-2"><circle class="cls-6" cx="88.32" cy="58.58" r="11.92"/><path class="cls-6" d="M134.73,129.22v-.33a.17.17,0,0,0,0-.1c-.27-3.5-2.1-27-2.11-27.45h0a6.33,6.33,0,0,0-9.6-4.93h0L85.83,112.08l-11.34,34a7,7,0,0,0-.49,1.48h0a7.31,7.31,0,0,0-.18,1.62,7.41,7.41,0,0,0,14.51,2.11h0l9.5-28.93,20.83-9.2L120,130.3h0a7.4,7.4,0,0,0,14.77-.67v-.41Z"/><path class="cls-6" d="M105.63,156.77h0a2.25,2.25,0,0,0,4.5,0v-.06h0V122.57l-4.5,1.74Z"/><path class="cls-6" d="M130.32,59.87h0A6.19,6.19,0,1,0,122,50.69a6.63,6.63,0,0,0-.52.54h0v.08l-.2.14L103,73.61,69.24,85.26,60.89,72.44h0a6.19,6.19,0,1,0-11.47,4.65,5.81,5.81,0,0,0,.41.83h0l.06.13a4.94,4.94,0,0,0,.27.42L60.93,95.05h0a4.56,4.56,0,0,0,4.3,3.07,4.86,4.86,0,0,0,1.26-.19h.07L83.22,93,85,107.5l22.83-10.23v-10Z"/><path class="cls-6" d="M144.66,46.57a2.25,2.25,0,0,0-2.25,2.25h0S139,66.46,131,77.86s-23.19,19.38-23.19,19.38v5.55S127,94.33,136.25,78.3c8.63-14.95,10.35-26.63,10.62-29a3.38,3.38,0,0,0,0-.45A2.24,2.24,0,0,0,144.66,46.57Z"/></g></g></g></g></svg>