<svg xmlns="http://www.w3.org/2000/svg" xmlns:xlink="http://www.w3.org/1999/xlink" viewBox="0 0 199.84 297.08"><defs><style>.cls-1{opacity:0.2;fill:url(#radial-gradient);}.cls-2{fill:#dcb647;}.cls-3{fill:#ebebeb;}.cls-4{fill:none;stroke:#000;stroke-linecap:round;stroke-linejoin:round;stroke-width:1.42px;}.cls-5{fill:#fff;}.cls-6{fill:#010101;}</style><radialGradient id="radial-gradient" cx="99.92" cy="280.49" r="65.38" gradientTransform="translate(0 209.33) scale(1 0.25)" gradientUnits="userSpaceOnUse"><stop offset="0"/><stop offset="1" stop-color="#fff" stop-opacity="0"/></radialGradient></defs><title>Pet_friendly_2</title><g id="Layer_2" data-name="Layer 2"><g id="Layer_1-2" data-name="Layer 1"><ellipse class="cls-1" cx="99.92" cy="280.49" rx="65.65" ry="16.59"/><path class="cls-2" d="M99.92,279.07a2.79,2.79,0,0,1-2.39-1.31L25.72,164.64a286.91,286.91,0,0,1-16-29.7c-.08-.16-7.63-17.19-7.63-35.62C2.13,45.73,46,2.13,99.92,2.13s97.8,43.6,97.8,97.19c0,18.45-7.56,35.46-7.63,35.62a286.24,286.24,0,0,1-16,29.7L102.31,277.76A2.79,2.79,0,0,1,99.92,279.07Z"/><path class="cls-3" d="M99.92,3.54c53.14,0,96.38,43,96.38,95.78,0,18.11-7.43,34.88-7.51,35a282.76,282.76,0,0,1-15.89,29.52L101.12,277a1.4,1.4,0,0,1-1.2.66,1.43,1.43,0,0,1-1.2-.66L26.92,163.88a283.49,283.49,0,0,1-15.87-29.52c-.07-.16-7.51-16.93-7.51-35,0-52.81,43.24-95.78,96.38-95.78m0-2.83C45.13.71.71,44.86.71,99.32c0,19,7.75,36.21,7.75,36.21A286.94,286.94,0,0,0,24.53,165.4l71.8,113.12a4.26,4.26,0,0,0,7.18,0L175.3,165.4a288.92,288.92,0,0,0,16.08-29.87s7.75-17.24,7.75-36.21C199.13,44.86,154.71.71,99.92.71Z"/><path class="cls-4" d="M199.13,99.32C199.13,44.86,154.71.71,99.92.71S.71,44.86.71,99.32c0,19,7.75,36.21,7.75,36.21A286.94,286.94,0,0,0,24.53,165.4l71.8,113.12a4.25,4.25,0,0,0,7.18,0L175.3,165.4a288.92,288.92,0,0,0,16.08-29.87S199.13,118.29,199.13,99.32Z"/><circle class="cls-5" cx="99.92" cy="99.92" r="79.06" transform="translate(-30.63 45.84) rotate(-22.5)"/><path class="cls-3" d="M99.92,22.28A77.64,77.64,0,1,1,22.28,99.92,77.73,77.73,0,0,1,99.92,22.28m0-2.84A80.48,80.48,0,1,0,180.4,99.92,80.48,80.48,0,0,0,99.92,19.44Z"/><g id="Layer_2-2" data-name="Layer 2"><g id="Layer_1-2-2" data-name="Layer 1-2"><path class="cls-6" d="M149,80.51,102.55,45.65a9.72,9.72,0,0,0-11.56,0L44.53,80.51A6.42,6.42,0,1,0,51.93,91a3.15,3.15,0,0,0,.29-.22L94.84,58.84a3.23,3.23,0,0,1,3.85,0l42.63,32A6.42,6.42,0,0,0,149,80.51Z"/><path class="cls-6" d="M121.39,50.15h3.21v4l12.85,9.64V50.15h3.22a3.21,3.21,0,1,0,0-6.42H121.39a3.21,3.21,0,1,0,0,6.42Z"/><path class="cls-6" d="M96.77,114.41c-6.5,0-11.78,4.8-11.78,10.71,0,2.24,0,6.42,11.78,6.42s11.78-4.18,11.78-6.42C108.55,119.21,103.26,114.41,96.77,114.41Z"/><path class="cls-6" d="M93.55,104.88a4.32,4.32,0,1,1-4.31-4.32A4.32,4.32,0,0,1,93.55,104.88Z"/><path class="cls-6" d="M108.55,104.88a4.32,4.32,0,1,1-4.32-4.32A4.33,4.33,0,0,1,108.55,104.88Z"/><path class="cls-6" d="M82,114a3.21,3.21,0,1,1-3.21-3.21A3.21,3.21,0,0,1,82,114Z"/><path class="cls-6" d="M118,114a3.22,3.22,0,1,1-3.22-3.21A3.22,3.22,0,0,1,118,114Z"/><path class="cls-6" d="M96.77,65.41,55,96.73v53.44a3.21,3.21,0,0,0,3.18,3.23h77.14a3.23,3.23,0,0,0,3.22-3.21V96.73Zm18.13,58.21a14.78,14.78,0,0,1,.07,1.5,11.32,11.32,0,0,1-6,10.54C106,137.21,102,138,96.84,138s-9.2-.76-12.09-2.31a11.26,11.26,0,0,1-6.09-10.54,12.56,12.56,0,0,1,.08-1.5,9.64,9.64,0,0,1-.07-19.27,10.69,10.69,0,0,1,18.1-7.08A10.69,10.69,0,0,1,115,104.35a9.64,9.64,0,0,1-.06,19.27Z"/></g></g></g></g></svg>