<svg xmlns="http://www.w3.org/2000/svg" xmlns:xlink="http://www.w3.org/1999/xlink" viewBox="0 0 199.84 297.08"><defs><style>.cls-1{opacity:0.2;fill:url(#radial-gradient);}.cls-2{fill:#dcb647;}.cls-3{fill:#ebebeb;}.cls-4{fill:none;stroke:#000;stroke-linecap:round;stroke-linejoin:round;stroke-width:1.42px;}.cls-5{fill:#fff;}.cls-6{fill:#010101;}</style><radialGradient id="radial-gradient" cx="99.92" cy="280.49" r="65.38" gradientTransform="translate(0 209.33) scale(1 0.25)" gradientUnits="userSpaceOnUse"><stop offset="0"/><stop offset="1" stop-color="#fff" stop-opacity="0"/></radialGradient></defs><title>Planinarenje_2</title><g id="Layer_2" data-name="Layer 2"><g id="Layer_1-2" data-name="Layer 1"><ellipse class="cls-1" cx="99.92" cy="280.49" rx="65.65" ry="16.59"/><path class="cls-2" d="M99.92,279.07a2.79,2.79,0,0,1-2.39-1.31L25.72,164.64a286.91,286.91,0,0,1-16-29.7c-.08-.16-7.63-17.19-7.63-35.62C2.13,45.73,46,2.13,99.92,2.13s97.8,43.6,97.8,97.19c0,18.45-7.56,35.46-7.63,35.62a286.24,286.24,0,0,1-16,29.7L102.31,277.76A2.79,2.79,0,0,1,99.92,279.07Z"/><path class="cls-3" d="M99.92,3.54c53.14,0,96.38,43,96.38,95.78,0,18.11-7.43,34.88-7.51,35a282.76,282.76,0,0,1-15.89,29.52L101.12,277a1.4,1.4,0,0,1-1.2.66,1.43,1.43,0,0,1-1.2-.66L26.92,163.88a283.49,283.49,0,0,1-15.87-29.52c-.07-.16-7.51-16.93-7.51-35,0-52.81,43.24-95.78,96.38-95.78m0-2.83C45.13.71.71,44.86.71,99.32c0,19,7.75,36.21,7.75,36.21A286.94,286.94,0,0,0,24.53,165.4l71.8,113.12a4.26,4.26,0,0,0,7.18,0L175.3,165.4a288.92,288.92,0,0,0,16.08-29.87s7.75-17.24,7.75-36.21C199.13,44.86,154.71.71,99.92.71Z"/><path class="cls-4" d="M199.13,99.32C199.13,44.86,154.71.71,99.92.71S.71,44.86.71,99.32c0,19,7.75,36.21,7.75,36.21A286.94,286.94,0,0,0,24.53,165.4l71.8,113.12a4.25,4.25,0,0,0,7.18,0L175.3,165.4a288.92,288.92,0,0,0,16.08-29.87S199.13,118.29,199.13,99.32Z"/><circle class="cls-5" cx="99.92" cy="99.92" r="79.06" transform="translate(-30.63 45.84) rotate(-22.5)"/><path class="cls-3" d="M99.92,22.28A77.64,77.64,0,1,1,22.28,99.92,77.73,77.73,0,0,1,99.92,22.28m0-2.84A80.48,80.48,0,1,0,180.4,99.92,80.48,80.48,0,0,0,99.92,19.44Z"/><g id="Layer_2-2" data-name="Layer 2"><g id="Layer_1-2-2" data-name="Layer 1-2"><circle class="cls-6" cx="94.94" cy="52.64" r="11.57"/><path class="cls-6" d="M115.94,92.84h0L100.68,89,95.19,72.42h0A6.23,6.23,0,0,0,83.25,76a7.05,7.05,0,0,0,.45,1.1h0l7,18.87h0a6.2,6.2,0,0,0,5,3.84h0l17.15,5.07a4,4,0,0,0,.56.17h.1a5.53,5.53,0,0,0,1.4.17,6.23,6.23,0,0,0,1-12.38Z"/><path class="cls-6" d="M80.58,69l.35-.3h0a8.07,8.07,0,0,0-4.17-14h0l-.56-.06L60,52.82H59.1A8.08,8.08,0,0,0,58.41,69h0L74,70.52a8.2,8.2,0,0,0,1.63.17,9.87,9.87,0,0,0,1.22-.08,15.87,15.87,0,0,0-1.41,4.86C75,79.27,73,92.75,73,92.75l10.39-5.64s-3.88-9.92-4.3-12.43A6.12,6.12,0,0,1,80.58,69Z"/><polygon class="cls-6" points="71.73 72.8 69.09 91.76 56.07 76.38 56.57 70.69 71.73 72.8"/><path class="cls-6" d="M68.17,97.1s-.73,5.48-.83,7.4a18.68,18.68,0,0,0,.83,4.87,66,66,0,0,1-8.41-.93,8.51,8.51,0,0,1-6.26-8.62c.43-4.78,2-18.17,2-18.17Z"/><path class="cls-6" d="M114.33,136.16l-2.16-15.81a1.66,1.66,0,0,0-.08-.62v-.07h0a6.24,6.24,0,0,0-2.71-3.93h0l-13.93-9.41v-2.13s-5.61-1.39-7.1-3.81a69.36,69.36,0,0,1-3.81-9.18L72.3,97.81l-.48,7.5a6.77,6.77,0,0,0-.09,1V107a6.21,6.21,0,0,0,.22,1.14,34.32,34.32,0,0,0,1.11,4c1,3.18,5.71,17.77,5.71,17.77l-5.18,19.46a7.07,7.07,0,0,0,13.27,4.87h0a5.48,5.48,0,0,0,.17-.67l5.54-21.71a6.66,6.66,0,0,0,.19-.77h0a5.07,5.07,0,0,0,.11-1.1,6.22,6.22,0,0,0-.46-2.34h0L90,119.66l8.68,5.91,1.85,13.52A7,7,0,1,0,114.43,137c0-.25-.09-.49-.15-.74Z"/><path class="cls-6" d="M161.06,96.78a4,4,0,0,0-7.3-2.27h0l-14.85,19.78h0a4.08,4.08,0,0,0-.6,1.22h0l-6.34,22-8.83,1.22a3.92,3.92,0,0,0-1.31.22h0a4.06,4.06,0,0,0-1.22.71l-26.52,15h0a4,4,0,0,0,1.79,7.63,4.16,4.16,0,0,0,2.06-.58h0l26-15.1,11.59-1.9h0a4,4,0,0,0,3.29-3.17h0l6.58-22.5h0A4.3,4.3,0,0,0,146,118h0l14.16-18.61h0v-.09h0A4,4,0,0,0,161.06,96.78Z"/></g></g></g></g></svg>