<svg xmlns="http://www.w3.org/2000/svg" xmlns:xlink="http://www.w3.org/1999/xlink" viewBox="0 0 199.84 297.08"><defs><style>.cls-1{opacity:0.2;fill:url(#radial-gradient);}.cls-2{fill:#dcb647;}.cls-3{fill:#ebebeb;}.cls-4{fill:none;stroke:#000;stroke-linecap:round;stroke-linejoin:round;stroke-width:1.42px;}.cls-5{fill:#fff;}.cls-6{fill:#010101;}</style><radialGradient id="radial-gradient" cx="99.92" cy="280.49" r="65.38" gradientTransform="translate(0 209.33) scale(1 0.25)" gradientUnits="userSpaceOnUse"><stop offset="0"/><stop offset="1" stop-color="#fff" stop-opacity="0"/></radialGradient></defs><title>Rafting_2</title><g id="Layer_2" data-name="Layer 2"><g id="Layer_1-2" data-name="Layer 1"><ellipse class="cls-1" cx="99.92" cy="280.49" rx="65.65" ry="16.59"/><path class="cls-2" d="M99.92,279.07a2.79,2.79,0,0,1-2.39-1.31L25.72,164.64a286.91,286.91,0,0,1-16-29.7c-.08-.16-7.63-17.19-7.63-35.62C2.13,45.73,46,2.13,99.92,2.13s97.8,43.6,97.8,97.19c0,18.45-7.56,35.46-7.63,35.62a286.24,286.24,0,0,1-16,29.7L102.31,277.76A2.79,2.79,0,0,1,99.92,279.07Z"/><path class="cls-3" d="M99.92,3.54c53.14,0,96.38,43,96.38,95.78,0,18.11-7.43,34.88-7.51,35a282.76,282.76,0,0,1-15.89,29.52L101.12,277a1.4,1.4,0,0,1-1.2.66,1.43,1.43,0,0,1-1.2-.66L26.92,163.88a283.49,283.49,0,0,1-15.87-29.52c-.07-.16-7.51-16.93-7.51-35,0-52.81,43.24-95.78,96.38-95.78m0-2.83C45.13.71.71,44.86.71,99.32c0,19,7.75,36.21,7.75,36.21A286.94,286.94,0,0,0,24.53,165.4l71.8,113.12a4.26,4.26,0,0,0,7.18,0L175.3,165.4a288.92,288.92,0,0,0,16.08-29.87s7.75-17.24,7.75-36.21C199.13,44.86,154.71.71,99.92.71Z"/><path class="cls-4" d="M199.13,99.32C199.13,44.86,154.71.71,99.92.71S.71,44.86.71,99.32c0,19,7.75,36.21,7.75,36.21A286.94,286.94,0,0,0,24.53,165.4l71.8,113.12a4.25,4.25,0,0,0,7.18,0L175.3,165.4a288.92,288.92,0,0,0,16.08-29.87S199.13,118.29,199.13,99.32Z"/><circle class="cls-5" cx="99.92" cy="99.92" r="79.06" transform="translate(-30.63 45.84) rotate(-22.5)"/><path class="cls-3" d="M99.92,22.28A77.64,77.64,0,1,1,22.28,99.92,77.73,77.73,0,0,1,99.92,22.28m0-2.84A80.48,80.48,0,1,0,180.4,99.92,80.48,80.48,0,0,0,99.92,19.44Z"/><g id="Layer_2-2" data-name="Layer 2"><g id="Layer_1-2-2" data-name="Layer 1-2"><path class="cls-6" d="M118,116.65l1.36,3.85s10-4.78,13.72-4.78,10.31,5.56,16.82,5.56c2.78,0,5-1.08,7-2,2.74-1.22,5.11-2.41,6.49-2.87a9.79,9.79,0,0,1,3.06-.74v-6.82a63.26,63.26,0,0,0-10.78,3.37c-5.9,2.42-7.42,2.37-11.8.25s-8.2-3.35-11.73-3.35-10.77,3.42-10.77,3.42Z"/><path class="cls-6" d="M99.45,108.87l-8.2,9.33s-5,3.11-9.37,3.11-12.45-4.54-12.45-4.54l4.63-5.56s4.84,3.29,8,3.29,6.83-3,10.74-4.22A38.38,38.38,0,0,1,99.45,108.87Z"/><path class="cls-6" d="M31.42,108.87v6.78a10.39,10.39,0,0,1,4.52,1.29c1.81.92,3.67,1.75,5.56,2.49l4.76-5.29a88.58,88.58,0,0,0-9.75-4.23A21.51,21.51,0,0,0,31.42,108.87Z"/><path class="cls-6" d="M90.31,79.45,61,113.38l-4.26-.93c-1.45-.33-2.19-.41-2.52-.12s-13.62,15.08-14.86,16.28,0,4.18,3.19,7.86,8.11,4.06,9.27,3.07,13.53-15.31,14.11-15.93.41-1.46,0-2.53-1.85-5-1.85-5L73.65,105s4.75,3.17,8.43,3.17,12.58-5.57,17.43-5.57,10.84,3.81,10.84,3.81l21.52-25V77.13L139,79.38l-29.1,34.08s-3.64-.92-4.88-1.07-2-.38-2.52.08-13.13,14.78-14,15.76a2.34,2.34,0,0,0-.78,2.15c0,1,.62,2.57,3.52,5.93s7.78,4.3,8.69,3.7,13.74-15.64,14.36-16.22.79-.74.62-1.61-2.11-6.21-2.11-6.21l8-9.34s6.09-3.84,11.3-3.84,9.61,2.48,11.64,3.47,5.37,2.57,7.61,1.7,9-3.85,9-3.85,3.07-3.1,3.07-9.35-6.91-11.12-10.76-11.12H140.89l2.4-3.33s2.35-.31,3-2c.93-2.32-.28-3.71-2.06-4.53S135.39,71,135.39,71s-4.8-4.18-7.62-6.08-5.75-1.07-7.9,1S111.05,77,109.15,79.17s0,4.55,0,4.55H92.09L95,80.31a4.42,4.42,0,0,0,2.86-1.5c1.12-1.36.24-4-.92-4.63S87.16,71,87.16,71a73.62,73.62,0,0,0-7.41-6.12c-2.61-1.66-4.3-1-6.87.2s-9.94,11.8-12,13.91,0,4.72,0,4.72H49.59c-3.29,0-11.85,2.87-11.85,12.44s7.69,11.94,10.8,11.94,6.39-2.78,8.94-3.67a66.36,66.36,0,0,1,7.76-1.73L83.61,81.08V77.16Z"/><circle class="cls-6" cx="125.99" cy="51.84" r="8.61"/><circle class="cls-6" cx="77.99" cy="51.84" r="8.61"/></g></g></g></g></svg>