<svg xmlns="http://www.w3.org/2000/svg" xmlns:xlink="http://www.w3.org/1999/xlink" viewBox="0 0 199.84 297.08"><defs><style>.cls-1{opacity:0.2;fill:url(#radial-gradient);}.cls-2{fill:#dcb647;}.cls-3{fill:#ebebeb;}.cls-4{fill:none;stroke:#000;stroke-linecap:round;stroke-linejoin:round;stroke-width:1.42px;}.cls-5{fill:#fff;}.cls-6{fill:#010101;}</style><radialGradient id="radial-gradient" cx="99.92" cy="280.49" r="65.38" gradientTransform="translate(0 209.33) scale(1 0.25)" gradientUnits="userSpaceOnUse"><stop offset="0"/><stop offset="1" stop-color="#fff" stop-opacity="0"/></radialGradient></defs><title>Restoran_2</title><g id="Layer_2" data-name="Layer 2"><g id="Layer_1-2" data-name="Layer 1"><ellipse class="cls-1" cx="99.92" cy="280.49" rx="65.65" ry="16.59"/><path class="cls-2" d="M99.92,279.07a2.79,2.79,0,0,1-2.39-1.31L25.72,164.64a286.91,286.91,0,0,1-16-29.7c-.08-.16-7.63-17.19-7.63-35.62C2.13,45.73,46,2.13,99.92,2.13s97.8,43.6,97.8,97.19c0,18.45-7.56,35.46-7.63,35.62a286.24,286.24,0,0,1-16,29.7L102.31,277.76A2.79,2.79,0,0,1,99.92,279.07Z"/><path class="cls-3" d="M99.92,3.54c53.14,0,96.38,43,96.38,95.78,0,18.11-7.43,34.88-7.51,35a282.76,282.76,0,0,1-15.89,29.52L101.12,277a1.4,1.4,0,0,1-1.2.66,1.43,1.43,0,0,1-1.2-.66L26.92,163.88a283.49,283.49,0,0,1-15.87-29.52c-.07-.16-7.51-16.93-7.51-35,0-52.81,43.24-95.78,96.38-95.78m0-2.83C45.13.71.71,44.86.71,99.32c0,19,7.75,36.21,7.75,36.21A286.94,286.94,0,0,0,24.53,165.4l71.8,113.12a4.26,4.26,0,0,0,7.18,0L175.3,165.4a288.92,288.92,0,0,0,16.08-29.87s7.75-17.24,7.75-36.21C199.13,44.86,154.71.71,99.92.71Z"/><path class="cls-4" d="M199.13,99.32C199.13,44.86,154.71.71,99.92.71S.71,44.86.71,99.32c0,19,7.75,36.21,7.75,36.21A286.94,286.94,0,0,0,24.53,165.4l71.8,113.12a4.25,4.25,0,0,0,7.18,0L175.3,165.4a288.92,288.92,0,0,0,16.08-29.87S199.13,118.29,199.13,99.32Z"/><circle class="cls-5" cx="99.92" cy="99.92" r="79.06" transform="translate(-30.63 45.84) rotate(-22.5)"/><path class="cls-3" d="M99.92,22.28A77.64,77.64,0,1,1,22.28,99.92,77.73,77.73,0,0,1,99.92,22.28m0-2.84A80.48,80.48,0,1,0,180.4,99.92,80.48,80.48,0,0,0,99.92,19.44Z"/><g id="Layer_2-2" data-name="Layer 2"><g id="Layer_1-2-2" data-name="Layer 1-2"><circle class="cls-6" cx="100.79" cy="99.96" r="25.24"/><path class="cls-6" d="M150,101.67s-2.5,21.1-1.62,29.8,2.27,12.07,4.06,12.07,3.65-6.09,3.65-12.47-.52-23.55-.52-29.93V61.29c0-3.13-3-3.48-4.39-1.39s-5.51,12.7-5.51,24.57S150,101.67,150,101.67Z"/><path class="cls-6" d="M56.94,58.39h-1.5V76h-1.9V58.39H51.48V76.18H49.73V58.39h-2V76H45.74V58.39H44.27c-.39,0-.47.7-.47,2.66V76.49c0,4.45.9,7.66,2.32,9.31a15.15,15.15,0,0,0,3,2.59s-2.21,22.12-2.29,32.53.39,16.09,1,18.32,1.29,4.37,2.85,4.37,2.25-2.17,2.86-4.37,1-7.92,1-18.32S52.14,88.4,52.14,88.4a15.15,15.15,0,0,0,3-2.59c1.42-1.65,2.32-4.86,2.32-9.3V61.05C57.41,59.09,57.33,58.39,56.94,58.39Z"/><path class="cls-6" d="M100.79,60.82A39.16,39.16,0,1,0,139.94,100h0A39.15,39.15,0,0,0,100.79,60.82Zm0,68.74a29.58,29.58,0,1,0,0-.05h0Z"/></g></g></g></g></svg>