<svg xmlns="http://www.w3.org/2000/svg" xmlns:xlink="http://www.w3.org/1999/xlink" viewBox="0 0 199.84 297.08"><defs><style>.cls-1{opacity:0.2;fill:url(#radial-gradient);}.cls-2{fill:#dcb647;}.cls-3{fill:#ebebeb;}.cls-4{fill:none;stroke:#000;stroke-linecap:round;stroke-linejoin:round;stroke-width:1.42px;}.cls-5{fill:#fff;}.cls-6{fill:#010101;}</style><radialGradient id="radial-gradient" cx="99.92" cy="280.49" r="65.38" gradientTransform="translate(0 209.33) scale(1 0.25)" gradientUnits="userSpaceOnUse"><stop offset="0"/><stop offset="1" stop-color="#fff" stop-opacity="0"/></radialGradient></defs><title>Rijeke_2</title><g id="Layer_2" data-name="Layer 2"><g id="Layer_1-2" data-name="Layer 1"><ellipse class="cls-1" cx="99.92" cy="280.49" rx="65.65" ry="16.59"/><path class="cls-2" d="M99.92,279.07a2.79,2.79,0,0,1-2.39-1.31L25.72,164.64a286.91,286.91,0,0,1-16-29.7c-.08-.16-7.63-17.19-7.63-35.62C2.13,45.73,46,2.13,99.92,2.13s97.8,43.6,97.8,97.19c0,18.45-7.56,35.46-7.63,35.62a286.24,286.24,0,0,1-16,29.7L102.31,277.76A2.79,2.79,0,0,1,99.92,279.07Z"/><path class="cls-3" d="M99.92,3.54c53.14,0,96.38,43,96.38,95.78,0,18.11-7.43,34.88-7.51,35a282.76,282.76,0,0,1-15.89,29.52L101.12,277a1.4,1.4,0,0,1-1.2.66,1.43,1.43,0,0,1-1.2-.66L26.92,163.88a283.49,283.49,0,0,1-15.87-29.52c-.07-.16-7.51-16.93-7.51-35,0-52.81,43.24-95.78,96.38-95.78m0-2.83C45.13.71.71,44.86.71,99.32c0,19,7.75,36.21,7.75,36.21A286.94,286.94,0,0,0,24.53,165.4l71.8,113.12a4.26,4.26,0,0,0,7.18,0L175.3,165.4a288.92,288.92,0,0,0,16.08-29.87s7.75-17.24,7.75-36.21C199.13,44.86,154.71.71,99.92.71Z"/><path class="cls-4" d="M199.13,99.32C199.13,44.86,154.71.71,99.92.71S.71,44.86.71,99.32c0,19,7.75,36.21,7.75,36.21A286.94,286.94,0,0,0,24.53,165.4l71.8,113.12a4.25,4.25,0,0,0,7.18,0L175.3,165.4a288.92,288.92,0,0,0,16.08-29.87S199.13,118.29,199.13,99.32Z"/><circle class="cls-5" cx="99.92" cy="99.92" r="79.06" transform="translate(-30.63 45.84) rotate(-22.5)"/><path class="cls-3" d="M99.92,22.28A77.64,77.64,0,1,1,22.28,99.92,77.73,77.73,0,0,1,99.92,22.28m0-2.84A80.48,80.48,0,1,0,180.4,99.92,80.48,80.48,0,0,0,99.92,19.44Z"/><g id="Layer_2-2" data-name="Layer 2"><g id="Layer_1-2-2" data-name="Layer 1-2"><path class="cls-6" d="M74.84,88.92c-14.14,0-21.45-6.27-27.9-11.81a4.26,4.26,0,0,1,5.51-6.46c6.1,5.23,11.37,9.75,22.36,9.75s16.29-4.56,22.4-9.75c6.45-5.54,13.76-11.81,27.9-11.81S146.57,65.11,153,70.65a4.26,4.26,0,1,1-5.57,6.46c-6.08-5.27-11.35-9.75-22.34-9.75s-16.26,4.48-22.36,9.75C96.3,82.65,89,88.92,74.84,88.92Zm27.91,11.49c6.1-5.23,11.37-9.75,22.36-9.75s16.26,4.52,22.34,9.75a4.26,4.26,0,1,0,5.73-6.3L153,94c-6.43-5.54-13.74-11.81-27.89-11.81S103.66,88.41,97.21,94c-6.11,5.23-11.38,9.75-22.37,9.75S58.58,99.18,52.45,94a4.26,4.26,0,0,0-5.85,6.19,2.61,2.61,0,0,0,.31.27c6.45,5.54,13.76,11.81,27.9,11.81S96.3,106,102.75,100.41Zm0,23.31c6.1-5.24,11.37-9.76,22.36-9.76s16.26,4.52,22.34,9.76a4.26,4.26,0,1,0,5.55-6.47c-6.43-5.54-13.74-11.81-27.89-11.81s-21.45,6.27-27.9,11.81C91.1,122.48,85.83,127,74.84,127s-16.26-4.52-22.39-9.75h0a4.26,4.26,0,0,0-5.54,6.47c6.45,5.53,13.76,11.8,27.9,11.8S96.3,129.25,102.75,123.72Z"/></g></g></g></g></svg>