<svg xmlns="http://www.w3.org/2000/svg" xmlns:xlink="http://www.w3.org/1999/xlink" viewBox="0 0 199.84 297.08"><defs><style>.cls-1{opacity:0.2;fill:url(#radial-gradient);}.cls-2{fill:#dcb647;}.cls-3{fill:#ebebeb;}.cls-4{fill:none;stroke:#000;stroke-linecap:round;stroke-linejoin:round;stroke-width:1.42px;}.cls-5{fill:#fff;}.cls-6{fill:#010101;}</style><radialGradient id="radial-gradient" cx="99.92" cy="280.49" r="65.38" gradientTransform="translate(0 209.33) scale(1 0.25)" gradientUnits="userSpaceOnUse"><stop offset="0"/><stop offset="1" stop-color="#fff" stop-opacity="0"/></radialGradient></defs><title>Skijanje_2</title><g id="Layer_2" data-name="Layer 2"><g id="Layer_1-2" data-name="Layer 1"><ellipse class="cls-1" cx="99.92" cy="280.49" rx="65.65" ry="16.59"/><path class="cls-2" d="M99.92,279.07a2.79,2.79,0,0,1-2.39-1.31L25.72,164.64a286.91,286.91,0,0,1-16-29.7c-.08-.16-7.63-17.19-7.63-35.62C2.13,45.73,46,2.13,99.92,2.13s97.8,43.6,97.8,97.19c0,18.45-7.56,35.46-7.63,35.62a286.24,286.24,0,0,1-16,29.7L102.31,277.76A2.79,2.79,0,0,1,99.92,279.07Z"/><path class="cls-3" d="M99.92,3.54c53.14,0,96.38,43,96.38,95.78,0,18.11-7.43,34.88-7.51,35a282.76,282.76,0,0,1-15.89,29.52L101.12,277a1.4,1.4,0,0,1-1.2.66,1.43,1.43,0,0,1-1.2-.66L26.92,163.88a283.49,283.49,0,0,1-15.87-29.52c-.07-.16-7.51-16.93-7.51-35,0-52.81,43.24-95.78,96.38-95.78m0-2.83C45.13.71.71,44.86.71,99.32c0,19,7.75,36.21,7.75,36.21A286.94,286.94,0,0,0,24.53,165.4l71.8,113.12a4.26,4.26,0,0,0,7.18,0L175.3,165.4a288.92,288.92,0,0,0,16.08-29.87s7.75-17.24,7.75-36.21C199.13,44.86,154.71.71,99.92.71Z"/><path class="cls-4" d="M199.13,99.32C199.13,44.86,154.71.71,99.92.71S.71,44.86.71,99.32c0,19,7.75,36.21,7.75,36.21A286.94,286.94,0,0,0,24.53,165.4l71.8,113.12a4.25,4.25,0,0,0,7.18,0L175.3,165.4a288.92,288.92,0,0,0,16.08-29.87S199.13,118.29,199.13,99.32Z"/><circle class="cls-5" cx="99.92" cy="99.92" r="79.06" transform="translate(-30.63 45.84) rotate(-22.5)"/><path class="cls-3" d="M99.92,22.28A77.64,77.64,0,1,1,22.28,99.92,77.73,77.73,0,0,1,99.92,22.28m0-2.84A80.48,80.48,0,1,0,180.4,99.92,80.48,80.48,0,0,0,99.92,19.44Z"/><g id="Layer_2-2" data-name="Layer 2"><g id="Layer_1-2-2" data-name="Layer 1-2"><path class="cls-6" d="M78.44,80.57l27.38,15.48s7,7.16,7.6,8a3.9,3.9,0,0,1-.73,5.15c-2.08,2-20.83,17.34-20.83,17.34s18.07,10.52,24.42,13.9,11.62,3.9,14.76,3.64a33.1,33.1,0,0,0,7-1.61c1.41-.36,4.37-.57,5.21,2.14s0,4.52-1.67,5.35a26.82,26.82,0,0,1-18.12,2c-8.64-2.34-13.48-5.26-21.6-9.9s-54.74-31.23-57.44-32.74a4.35,4.35,0,0,1-1.69-5.9l.18-.3A3.76,3.76,0,0,1,48.09,102C50.53,103.16,84,122.12,84,122.12l.57-.36,11.31-13.85s-11.2-8.59-15.2-12.07-5.2-7.25-4.54-10.21A13,13,0,0,1,78.44,80.57Z"/><path class="cls-6" d="M91,73.09s14.21-7.2,16.45-8.18,6.72-2,10.11.63,4.44,4.6,5,8.89,2,16.61,2,16.61,11.18,9.95,13,11.69,2.76,4.46.78,6.3a4.53,4.53,0,0,1-5.44.66c-.91-.68-16.45-12.24-17.44-13.13s-1.17-2.13-1.62-4.34S112.34,86,112.34,86l-3.82,2S55.19,57.71,54,56.88a2.21,2.21,0,0,1-1-3,.56.56,0,0,1,.05-.08,2,2,0,0,1,2.73-.71C56.88,53.65,91,73.09,91,73.09Z"/><circle class="cls-6" cx="137.08" cy="61.63" r="10.48"/></g></g></g></g></svg>