<svg xmlns="http://www.w3.org/2000/svg" xmlns:xlink="http://www.w3.org/1999/xlink" viewBox="0 0 199.84 297.08"><defs><style>.cls-1{opacity:0.2;fill:url(#radial-gradient);}.cls-2{fill:#dcb647;}.cls-3{fill:#ebebeb;}.cls-4{fill:none;stroke:#000;stroke-linecap:round;stroke-linejoin:round;stroke-width:1.42px;}.cls-5{fill:#fff;}.cls-6{fill:#010101;}</style><radialGradient id="radial-gradient" cx="99.92" cy="280.49" r="65.38" gradientTransform="translate(0 209.33) scale(1 0.25)" gradientUnits="userSpaceOnUse"><stop offset="0"/><stop offset="1" stop-color="#fff" stop-opacity="0"/></radialGradient></defs><title>Sume_2</title><g id="Layer_2" data-name="Layer 2"><g id="Layer_1-2" data-name="Layer 1"><ellipse class="cls-1" cx="99.92" cy="280.49" rx="65.65" ry="16.59"/><path class="cls-2" d="M99.92,279.07a2.79,2.79,0,0,1-2.39-1.31L25.72,164.64a286.91,286.91,0,0,1-16-29.7c-.08-.16-7.63-17.19-7.63-35.62C2.13,45.73,46,2.13,99.92,2.13s97.8,43.6,97.8,97.19c0,18.45-7.56,35.46-7.63,35.62a286.24,286.24,0,0,1-16,29.7L102.31,277.76A2.79,2.79,0,0,1,99.92,279.07Z"/><path class="cls-3" d="M99.92,3.54c53.14,0,96.38,43,96.38,95.78,0,18.11-7.43,34.88-7.51,35a282.76,282.76,0,0,1-15.89,29.52L101.12,277a1.4,1.4,0,0,1-1.2.66,1.43,1.43,0,0,1-1.2-.66L26.92,163.88a283.49,283.49,0,0,1-15.87-29.52c-.07-.16-7.51-16.93-7.51-35,0-52.81,43.24-95.78,96.38-95.78m0-2.83C45.13.71.71,44.86.71,99.32c0,19,7.75,36.21,7.75,36.21A286.94,286.94,0,0,0,24.53,165.4l71.8,113.12a4.26,4.26,0,0,0,7.18,0L175.3,165.4a288.92,288.92,0,0,0,16.08-29.87s7.75-17.24,7.75-36.21C199.13,44.86,154.71.71,99.92.71Z"/><path class="cls-4" d="M199.13,99.32C199.13,44.86,154.71.71,99.92.71S.71,44.86.71,99.32c0,19,7.75,36.21,7.75,36.21A286.94,286.94,0,0,0,24.53,165.4l71.8,113.12a4.25,4.25,0,0,0,7.18,0L175.3,165.4a288.92,288.92,0,0,0,16.08-29.87S199.13,118.29,199.13,99.32Z"/><circle class="cls-5" cx="99.92" cy="99.92" r="79.06" transform="translate(-30.63 45.84) rotate(-22.5)"/><path class="cls-3" d="M99.92,22.28A77.64,77.64,0,1,1,22.28,99.92,77.73,77.73,0,0,1,99.92,22.28m0-2.84A80.48,80.48,0,1,0,180.4,99.92,80.48,80.48,0,0,0,99.92,19.44Z"/><g id="Layer_2-2" data-name="Layer 2"><g id="Layer_1-2-2" data-name="Layer 1-2"><path class="cls-6" d="M53.25,122.46l11.13-17.1a.89.89,0,0,0-.26-1.24.84.84,0,0,0-.49-.15H58.87a.9.9,0,0,1-.9-.89v-.51a.91.91,0,0,1,.11-.42L66.5,86.62a.91.91,0,0,0-.36-1.22,1,1,0,0,0-.43-.11H63.78a.88.88,0,0,1-.89-.88V83.9a.92.92,0,0,1,.11-.43L75,58.62,84.5,78.14l-.61,1.25a4.33,4.33,0,0,0-.46,1.9v.58a4.09,4.09,0,0,0,1.91,3.44h-1a.92.92,0,0,0-.89.91,1,1,0,0,0,.11.42L84.83,89l-6.62,12.24a4,4,0,0,0-.53,1.93v.6a4.08,4.08,0,0,0,4.07,4.07h1.93l-11,17A4.06,4.06,0,0,0,72,127v.55a4.07,4.07,0,0,0,4.07,4.07h3.74v8.14H70.3V125.15a.9.9,0,0,0-.9-.9l-15.4,0a.89.89,0,0,1-.9-.86v-.47A.83.83,0,0,1,53.25,122.46Z"/><path class="cls-6" d="M148.2,122.46l-11.13-17.1a.88.88,0,0,1,.26-1.24.83.83,0,0,1,.48-.15h4.77a.89.89,0,0,0,.89-.89h0v-.51a.91.91,0,0,0-.11-.42L135,86.64a.91.91,0,0,1,.36-1.22,1,1,0,0,1,.42-.11h2a.88.88,0,0,0,.89-.88h0v-.51a.92.92,0,0,0-.11-.43L126.46,58.62,117,78.14l.6,1.25a4.2,4.2,0,0,1,.47,1.9v.58a4.08,4.08,0,0,1-1.92,3.44h1a.9.9,0,0,1,.79,1.33L116.65,89l6.63,12.25a4.07,4.07,0,0,1,.49,1.93v.6a4.08,4.08,0,0,1-4.08,4.07h-1.92l11.06,17a4.06,4.06,0,0,1,.66,2.22v.55a4.07,4.07,0,0,1-4.07,4.07H121.7v8.14h9.51V125.15a.92.92,0,0,1,.9-.9H147.5a.88.88,0,0,0,.89-.88v-.47A.84.84,0,0,0,148.2,122.46Z"/><path class="cls-6" d="M76.07,128.63h18a1.07,1.07,0,0,1,1.07,1.07v17.1h11.13V129.62a1.07,1.07,0,0,1,1.07-1.07h18a1.07,1.07,0,0,0,1.07-1.07v-.55a1.06,1.06,0,0,0-.17-.57l-13.09-19.92a1.07,1.07,0,0,1,.37-1.47,1,1,0,0,1,.5-.14h5.59a1.07,1.07,0,0,0,1.07-1.07v-.6a1,1,0,0,0-.12-.49L110.8,84.46a1.07,1.07,0,0,1,.49-1.43,1.05,1.05,0,0,1,.43-.11H114a1.06,1.06,0,0,0,1.06-1.07v-.59a1.14,1.14,0,0,0-.13-.51L100.75,51.61,86.59,80.77a1.06,1.06,0,0,0-.13.52v.58a1.07,1.07,0,0,0,1.07,1.07h2.31a1.06,1.06,0,0,1,1,1.11.92.92,0,0,1-.11.43l-9.87,18.21a1.05,1.05,0,0,0-.13.49v.6a1.07,1.07,0,0,0,1.07,1.07h5.59a1.07,1.07,0,0,1,1,1.11,1.12,1.12,0,0,1-.15.5l-13.09,20A1.12,1.12,0,0,0,75,127v.55A1.06,1.06,0,0,0,76.07,128.63Z"/></g></g></g></g></svg>