<svg xmlns="http://www.w3.org/2000/svg" viewBox="0 0 135.06 112.52"><title>aktivan odmor</title><g id="Layer_2" data-name="Layer 2"><g id="Layer_1-2" data-name="Layer 1"><circle cx="109.39" cy="11.19" r="11.19"/><path d="M74.92,64.58s-2.49,4.8-14.66,2.31S32.1,56.67,32.1,56.67,11.05,66,7.32,67.6,1,65.65.3,63.43,0,57.12,3.41,55.79s28-12.17,29.67-12.62a7.57,7.57,0,0,1,4.89.45c1.42.62,9.06,3.73,9.06,3.73s-.09,1.77,1,2.22,2,.71,2,.71-1.78,4.8.62,7.55,11.55,4.88,15.28,5.68A70.22,70.22,0,0,0,74.92,64.58Z"/><path d="M120.93,37.75c11.11-20,14.22-26.11,14.13-28.33a4.29,4.29,0,0,0-3.47-4c-1.68-.36-3,.35-4.17,2.31s-10,23.36-17.5,31.71S93.49,54.9,81.14,54.9a57.05,57.05,0,0,1-21.77-4.36S79.54,56,89,51.79s17.59-11.91,17.59-17.68-2.48-10.75-6.39-11.46-6.22-.18-9.15,1.87S70.66,39.14,70.66,39.14l4.73,1.31S95,30.62,96.54,30s2.78.42,1.48,1.25-21.8,11-21.8,11-20-4.38-23.33-5.15S48,40.68,47.68,42.52s.71,4.74,2,5.21,4.21,1.19,4.21,1.19-2.43,1.95-2.37,4.32.71,4.09,5.33,5.68,14.68,4.27,21,4.27A78.6,78.6,0,0,0,90.55,62s-8.23,9.42-25.16,9.42S35.12,60.7,32.52,60.23s-4.68.59-5.15,2.78.29,3.32,1.89,4.68,10.19,5.39,10.19,5.39L32,93.33s-4.38-2.72-7.16-5-6.46-3.79-8-1.31-1.59,3.68-.29,5.16,21.14,20.31,48.5,20.31,50.69-17.71,52.29-19.6a3.83,3.83,0,0,0-.59-5.57c-1.6-1.36-3.14-1-4.68-.3s-10.3,6.4-10.3,6.4L93.57,70.77A124.26,124.26,0,0,0,120.93,37.75Zm-25,58.72a61.19,61.19,0,0,1-29.61,7.82,58.63,58.63,0,0,1-28.87-7.46l8-21.21s7.22,4.15,21.21,4.15,21-5.21,21-5.21Z"/></g></g></svg>