<svg xmlns="http://www.w3.org/2000/svg" viewBox="0 0 102.67 113.17"><title>arheoloska na</title><g id="Layer_2" data-name="Layer 2"><g id="Layer_1-2" data-name="Layer 1"><path d="M52.5,103.2h-37a4.82,4.82,0,0,0-4.72,4.63c0,3,1.87,4.71,4,4.71h37.1c3,0,4.44-2,4.44-4S55.79,103.2,52.5,103.2Z"/><path d="M49.92,17.13a21.46,21.46,0,0,0,1.47,4.31l17-7.25a7.39,7.39,0,0,0-2.89-4.94c-2.54-1.64-4-2.49-7.16-1.51A20,20,0,0,0,52,10.54,7.35,7.35,0,0,0,49.92,17.13Z"/><path d="M35.66,40.1C35,44,35,43.84,35.06,44.81s1.15,2.2,1.87,1c0,0,3.94-7.07,9.67-9.61A22.38,22.38,0,0,1,58.88,34.1c2.87.26,6.14.93,8.74-.47s5.14-7.34,10.81-10.41S87.77,20,90.71,20s5.2.67,6.07.47,1-1.07.27-1.94-5.34-4.6-9.74-5.13-6.14-.21-11.41,1.93S45.47,28.36,42.27,29.89,36.33,36.17,35.66,40.1Z"/><path d="M102.23,107.87c-1.07-3.07-30.69-72.59-30.69-72.59a6.22,6.22,0,0,1-2.85,2.35,21.49,21.49,0,0,1-3.91.89s29,68.15,30.51,71.44,3.47,3.56,5.25,2.94S103.3,110.94,102.23,107.87Z"/><path d="M14.69,9.25H48.05a21.09,21.09,0,0,1,3.83-3.73,17.06,17.06,0,0,1,4.36-1.69A4.29,4.29,0,0,0,51.79,0H14.69C12.11,0,11,2.49,11,4.63S11.93,9.25,14.69,9.25Z"/><path d="M17,13.35,21,33.1a42,42,0,0,1,7.57-1.78c3-.27,6.85-.27,6.85-.27s2.93-3.92,5.69-5.43a52.28,52.28,0,0,1,6.58-2.84,7.42,7.42,0,0,1-1.78-4.45c0-2.49.09-5,.09-5Z"/><path d="M50.27,39.06S45.11,41.81,43,44.31s-2.76,5-4.36,5.6-5.25.62-6.85-1.69-1.07-7.12-.62-9.16A9.84,9.84,0,0,1,33,35.32S17.62,34.07,8.1,46.17s-10,24-4.89,35.86S13.35,99.2,13.35,99.2H53.12S67,85.5,67,67.53a32.33,32.33,0,0,0-5.25-17.89A35,35,0,0,0,50.27,39.06ZM63.53,68.87c0,6.14-2,8.89-2,8.89l-7.38-3.83L41.38,80.17,28.74,74,16.11,80.17,4.37,74.82s-.89-1.69-.89-8,1.78-9.25,1.78-9.25l9.16,4.81,12.72-6.59L40,62.19,52.5,55.78,63,61.12S63.53,62.72,63.53,68.87Z"/></g></g></svg>