<svg xmlns="http://www.w3.org/2000/svg" viewBox="0 0 132.46 111.08"><title>bike</title><g id="Layer_2" data-name="Layer 2"><g id="Layer_1-2" data-name="Layer 1"><circle cx="86.43" cy="9.94" r="9.94"/><path d="M0,85a26.08,26.08,0,0,0,52,2.52h.6a8.29,8.29,0,0,0,16.57-.32,8.2,8.2,0,0,0-1.39-4.59h0l21.52-26.7h5l1.73,5.14a26.09,26.09,0,1,0,10.33-2.13,25.69,25.69,0,0,0-5.79.66l-2-5.72a4.1,4.1,0,0,0-.87-7h0l2.66-3.56L103,45.46a2.24,2.24,0,0,0,.38.31h0a2.52,2.52,0,0,0,3.9-2.11,2.55,2.55,0,0,0-1.12-2.1l-4.58-3.35-.23-.17h0a2.52,2.52,0,0,0-3.54.81h0c0,.08-4.34,5.6-4.34,5.6L82.89,39.76l-9.66-26.3h0A5,5,0,0,0,68.38,9.8a5.27,5.27,0,0,0-1.54.24h0L40.9,19.15h0a12.23,12.23,0,0,0-5.17,19.92h0l8.41,12.79-6.59,9.73A26.08,26.08,0,0,0,0,85ZM98,66.88l5.72,17h0a2.52,2.52,0,1,0,4.86-1.29h0l-6-17.2a19.51,19.51,0,0,1,3.77-.36A20,20,0,1,1,98,66.88Zm-52.08,16H29.1l9.15-13.65A20,20,0,0,1,45.93,82.83Zm18.2-3.26L61.3,61.72l5.06-5.95h16.9L64.13,79.57Zm-6.57-45,12-4.15,5.14,15.89L86.13,51H71.68a5,5,0,0,0-.25-7.82h0l-.05,0a6.12,6.12,0,0,0-.69-.43Zm-3,10.55,5.55,3.35c-.15.11-2.27,2.87-2.27,2.87ZM52.05,82.83A26,26,0,0,0,41.66,64.1l5.42-8,3.05,4.76.22,2.42L49,65.63a3.59,3.59,0,0,0-.52.86h0a3.44,3.44,0,0,0-.29,1.4,3.56,3.56,0,0,0,3.57,3.56,3.44,3.44,0,0,0,.91-.12h0l2.45,10a8.27,8.27,0,0,0-1.19,1.5ZM6.11,85a20,20,0,0,1,28-18.29L22.79,83.5h0a2.52,2.52,0,0,0,2,4H45.88A20,20,0,0,1,6.11,85Z"/></g></g></svg>