<svg xmlns="http://www.w3.org/2000/svg" viewBox="0 0 98.09 99.65"><title>dogadjaj</title><g id="Layer_2" data-name="Layer 2"><g id="Layer_1-2" data-name="Layer 1"><path d="M88,10.56c-3.34,0-6.68,0-10.19,0,0-.87,0-1.69,0-2.52,0-1.23,0-2.47-.09-3.69A4.63,4.63,0,0,0,74.29.19,2.17,2.17,0,0,1,74,0H71.24c-2.93,1-4.06,3.06-3.89,6.05.08,1.45,0,2.9,0,4.43H30.57c0-1.87,0-3.74,0-5.61A4.45,4.45,0,0,0,28.91,1.2,16,16,0,0,0,26.86,0H23.94a19.21,19.21,0,0,0-2.53,1.69A4.37,4.37,0,0,0,20.2,5.16c0,1.75,0,3.5,0,5.34-.42,0-.77.05-1.11.05-3,0-6,0-9,0A9.89,9.89,0,0,0,0,20.73v68.8A9.88,9.88,0,0,0,10.15,99.65H87.9A9.88,9.88,0,0,0,98.09,89.48V20.77A10,10,0,0,0,88,10.56ZM86.82,88.35H11.29V34.65H86.82Z"/><path d="M37,63.64a1.51,1.51,0,0,1,.45,1c-.4,2.69-.84,5.38-1.34,8a3.43,3.43,0,0,0,1.25,3.71,3.37,3.37,0,0,0,3.84.11c2.32-1.22,4.67-2.4,7-3.66a1.6,1.6,0,0,1,1.7,0c2.39,1.29,4.81,2.54,7.23,3.78a3.22,3.22,0,0,0,3.58-.26A3.28,3.28,0,0,0,62,73.09c-.44-2.72-.88-5.43-1.39-8.14a1.29,1.29,0,0,1,.44-1.35c2-1.89,3.91-3.8,5.84-5.71a3.3,3.3,0,0,0,1-3.64A3.35,3.35,0,0,0,65,52c-2.59-.4-5.18-.82-7.78-1.13a1.7,1.7,0,0,1-1.52-1.09c-1.13-2.36-2.33-4.7-3.49-7.05a3.37,3.37,0,0,0-6.24,0c-1.2,2.41-2.38,4.82-3.61,7.21a1.63,1.63,0,0,1-.94.8c-1.88.33-3.77.57-5.66.84l-2.5.38a3.4,3.4,0,0,0-3,2.29,3.33,3.33,0,0,0,1,3.63C33.15,59.83,35.12,61.71,37,63.64Z"/></g></g></svg>