<svg xmlns="http://www.w3.org/2000/svg" viewBox="0 0 147.58 109.21"><title>hrana</title><g id="Layer_2" data-name="Layer 2"><g id="Layer_1-2" data-name="Layer 1"><rect x="52.07" y="99.98" width="42.24" height="9.23"/><path d="M105.54,35.49,83.88,50.58s10.81,3.64,18.57-2,6.51-10.75,6-12.65-1.14-4.83.06-5.7,11.78-8.14,11.78-8.14A5.17,5.17,0,0,0,124,21c1.57-1.35,21.88-14.93,23-16s.49-3.48-.38-4.29-1.9-1.14-3.75,0-23.23,15.74-24.27,16.45-.38,1.79-1.9,2.88S106,27.67,105,28.92,105.54,35.49,105.54,35.49Z"/><path d="M121.56,55.9H69.87s-2.22-2.44-2.22-3.53,1.84-1.95,1.84-3.37-1.68-3-1.68-4.45,1.52-2.44,1.52-4.23a9.53,9.53,0,0,0-.92-3.64h3.2V35.16H68.68a7.23,7.23,0,0,0,.65-1.41c.11-.49.11-1.36-1.46-1.52s-2.07,2.22-2.07,2.22H63.63s-1.25-2.06-1.9-2-.65.93-.65.93A9,9,0,0,1,59.5,33c-.76-.27-1.84-1.63-3.2-3.64s-4.45-4.67-5.7-4.67h-16c-1.36,0-.92-1.74-1.9-1.74H3.26C.33,22.94,0,24.3,0,25.88S.71,29.4,3.09,29.4H31.92a3.08,3.08,0,0,0,2.61-1.57H46.85c4,0,4.24,3,6.57,6.08a6.38,6.38,0,0,0,6,2.28A15.52,15.52,0,0,0,59.56,38c.11.7,1.52,1.14,1.52,2.44s-1.85,2.28-1.85,3.91,1.85,2.33,1.85,4-1.63,2.17-1.63,3.91a6.71,6.71,0,0,0,1.63,3.58H24.81s-1.14,7.93,6.08,22.15a35.1,35.1,0,0,0,21,17.59H94.79a49.16,49.16,0,0,0,20.47-17C123.46,66.38,121.56,55.9,121.56,55.9ZM66.89,48c0,1.69-1.63,2.45-1.63,4.35a7,7,0,0,0,1.63,3.8H63.52a7.58,7.58,0,0,1-1.46-3.48c0-1.52,1.46-1.74,1.46-4s-1.46-3.36-1.46-4.34,1.46-2.55,1.46-4.18a6.15,6.15,0,0,0-1.46-3.31h3.36a7.84,7.84,0,0,1,1.47,3.53c0,1.52-1.58,1.52-1.58,3.63S66.89,46.29,66.89,48Z"/></g></g></svg>