<svg xmlns="http://www.w3.org/2000/svg" viewBox="0 0 129.22 99.6"><title>hrana na kucnom</title><g id="Layer_2" data-name="Layer 2"><g id="Layer_1-2" data-name="Layer 1"><path d="M97.48,33.2,85.42,31.3l-9-11.64a4.44,4.44,0,0,0-.46-.59h0a5.3,5.3,0,0,0-9.21,2.82h0l-3,25.07a6.31,6.31,0,0,0-.1.76v.06h0V48a5.3,5.3,0,0,0,4,5.14h0a5.55,5.55,0,0,0,.71.13l18.29,3.26L86.27,76a4.4,4.4,0,0,0,8.8.24h0c0-.07,0-.15,0-.23s0-.15,0-.23V53a4.42,4.42,0,0,0-4.41-4.41L75,46l1.79-14.52,3.9,5.05h0a3.54,3.54,0,0,0,2.18,1.42h0L83,38l13.46,2.2.25,0h0a3.44,3.44,0,0,0,.46,0,3.52,3.52,0,0,0,.27-7Z"/><circle cx="75.17" cy="8.01" r="8.01"/><path d="M54.2,31.43H38.4V10.14a.6.6,0,0,0-1.2,0v.58s-12.71,4.59-13.43,4.81a.69.69,0,0,0-.13,1.27c.42.21,12,4.37,13.56,4.91v9.72H31a3.35,3.35,0,0,0-3.35,3.35V52.06A3.35,3.35,0,0,0,31,55.41H54.2a3.35,3.35,0,0,0,3.35-3.35V34.78A3.35,3.35,0,0,0,54.2,31.43Z"/><path d="M125.81,77.29l.88-.59c.45-.37.82-1.72,0-2.28a19.62,19.62,0,0,0-6.85-2.77,21.61,21.61,0,0,0-4.75-.15,30.5,30.5,0,0,0,2.81-3.37,3,3,0,0,0,.26-3C117.56,63.64,108,42.69,108,42.69s4.26.68,5.76.79,2.73-.23,2.73-2.13V33.94c0-1.42-.56-2.47-2.06-2.32A64.29,64.29,0,0,0,104.77,34c-1.16.6-2.51,1.72-2.06,4.64s3.22,12.72,3.22,22.79-2.66,16.72-6.85,19-6.1,2-9.32,2H80.67c-1.94,0-5.35-2.76-5.35-7.89a18.4,18.4,0,0,1,2.92-9.35s3.74.11,3.74-3.3-1.34-4.52-3.78-4.52H40.31c-2.14,0-3.67,1.5-3.67,4,0,3.67,3.85,3.85,3.85,3.85s-6.1,3.63-8.42,9.73-2.09,9.28-2,10.1.71,1.24,1.87,1.24h4.35a13.39,13.39,0,0,0,26.77,0h37.27a31.84,31.84,0,0,0,.38,4.78c.29.79.93,1.35,1.87.9.09,0,.41-.23.91-.54a13.39,13.39,0,1,0,22.3-14.17ZM49.7,94a7.81,7.81,0,0,1-7.81-7.7H57.5A7.81,7.81,0,0,1,49.7,94Zm66.13,0a7.8,7.8,0,0,1-7.48-5.59c3.83-2.42,8.85-5.61,12.66-8.06A7.81,7.81,0,0,1,115.83,94Z"/><rect y="69.65" width="26.26" height="2.94" rx="1.47" ry="1.47"/><rect x="6.38" y="61.42" width="26.26" height="2.94" rx="1.47" ry="1.47"/><rect x="0.12" y="47.93" width="25.76" height="2.94" rx="1.47" ry="1.47"/><rect x="6.58" y="39.7" width="19.3" height="2.94" rx="1.47" ry="1.47"/></g></g></svg>