<svg xmlns="http://www.w3.org/2000/svg" viewBox="0 0 114.85 111.01"><defs><style>.cls-1{fill:#010101;}</style></defs><title>jahanje</title><g id="Layer_2" data-name="Layer 2"><g id="Layer_1-2" data-name="Layer 1"><path class="cls-1" d="M84.53,68.09l5.34-12.15A15.74,15.74,0,0,1,87,55.52C81.4,54.12,77.23,49.73,74.33,45h-5.5a8.66,8.66,0,0,1-1.1,7.17L56.81,68.82a8.72,8.72,0,1,1-14.57-9.57l5.36-8.18-6.18-2.86A8.63,8.63,0,0,1,37.74,45H34.13a15.15,15.15,0,0,0-9.87,3.71C20.55,46.16,6.89,38,2.47,53-2.15,68.76,8.49,71.43.4,78.56a1.2,1.2,0,0,0,1.18,2c3.84-1.3,9-5.32,10.82-17.29,1.24-8.07,5.22-10.91,8.6-10.66A15,15,0,0,0,23.34,71l-5.82,8.9-.31.47a3.91,3.91,0,0,0-.62,2.34L18,108.13a2.82,2.82,0,0,0,5.58.35l2.8-15.28,4.48,15.56a2.82,2.82,0,0,0,5.52-.91l-1-22.79L42,75.45H63.41l4.43,8.87-3.59,23.21a3,3,0,0,0,5.8,1.55L77.42,90l3.64,18.66a2.88,2.88,0,0,0,5.71-.72Z"/><path class="cls-1" d="M61.19,14.52a7.26,7.26,0,1,0-7.26-7.26,7.26,7.26,0,0,0,7.26,7.26Z"/><path class="cls-1" d="M113,30.53,99.74,19.43,100.87,9a1.08,1.08,0,0,0-.6-1.08,1.06,1.06,0,0,0-1.22.19L93,13.86l-4.32,9.69L81.8,33.84c2,5,4.83,9.64,8,10.43,1.62.41,3.66-.22,6-1.71l2.59-5.9,6.56,2.93c-6.12,6.73-11.52,9.58-16,8.43C82,46.3,77.82,35.38,76.23,29.24a3.08,3.08,0,0,0,0-2,3.23,3.23,0,0,0-3-2.13,3.32,3.32,0,0,0-1.11.19l-8.52,3.12-2.89-6.37h0a5.51,5.51,0,0,0-.14-4.2A5.43,5.43,0,0,0,57.44,15l-.6-.22A5.44,5.44,0,0,0,50,17.7c-2.08,4.67-5.54,12.35-9.35,20.57A4.85,4.85,0,0,0,43,44.71L53.3,49.44,45.47,61.37a4.85,4.85,0,1,0,8.11,5.33L64.5,50.05c.78-1.18,2-5.24-1.77-6.94-2.44-1.11-8.48-3.93-8.48-3.93l3.19-8.53c1.6,3.52,2.13,5.06,4.05,5.06s5-1.42,11.48-3.83c1.83,6.29,6.3,17.72,15,19.89a11.83,11.83,0,0,0,2.91.36c5.53,0,11.57-3.78,18-11.19a5.35,5.35,0,0,0,2.12-.33,5.22,5.22,0,0,0,2.91-2.76l.52-1.16A5.23,5.23,0,0,0,113,30.53Z"/></g></g></svg>