<svg xmlns="http://www.w3.org/2000/svg" viewBox="0 0 118.89 78.2"><title>jezera</title><g id="Layer_2" data-name="Layer 2"><g id="Layer_1-2" data-name="Layer 1"><path d="M87.26,55.88a2.71,2.71,0,0,1,4,0,.37.37,0,0,0,.53,0,.38.38,0,0,0,0-.54,3.48,3.48,0,0,0-5,0,2.7,2.7,0,0,1-4,0h0a.38.38,0,0,0-.5.58,3.48,3.48,0,0,0,2.48,1A3.44,3.44,0,0,0,87.26,55.88Z"/><path d="M76.74,50.81a2.7,2.7,0,0,1,4,0,.38.38,0,0,0,.49-.58,3.44,3.44,0,0,0-2.48-1,3.48,3.48,0,0,0-2.48,1,2.7,2.7,0,0,1-4,0h0a.39.39,0,0,0-.53,0,.38.38,0,0,0,0,.54,3.44,3.44,0,0,0,2.48,1A3.48,3.48,0,0,0,76.74,50.81Z"/><path d="M60.34,55.88a2.7,2.7,0,0,1,4,0,.38.38,0,0,0,.54,0,.39.39,0,0,0,0-.54,3.48,3.48,0,0,0-2.48-1,3.44,3.44,0,0,0-2.48,1,2.71,2.71,0,0,1-4,0h0a.38.38,0,0,0-.53.05.37.37,0,0,0,0,.53,3.45,3.45,0,0,0,5,0Z"/><path d="M48.81,50.81a2.71,2.71,0,0,1,4,0,.38.38,0,0,0,.49-.58,3.45,3.45,0,0,0-5,0,2.7,2.7,0,0,1-4,0h0a.4.4,0,0,0-.54,0,.39.39,0,0,0,0,.54,3.48,3.48,0,0,0,2.48,1A3.44,3.44,0,0,0,48.81,50.81Z"/><path d="M32.41,55.88a2.73,2.73,0,0,1,2-.87,2.69,2.69,0,0,1,2,.87.37.37,0,0,0,.53,0,.38.38,0,0,0,0-.54,3.44,3.44,0,0,0-2.48-1,3.48,3.48,0,0,0-2.48,1,2.7,2.7,0,0,1-4,0h0a.39.39,0,0,0-.54.05.38.38,0,0,0,.05.53,3.44,3.44,0,0,0,4.95,0Z"/><path d="M90.68,43.85c-8.34-2-19.38-3.08-31.09-3.08S36.85,41.86,28.5,43.85c-10.28,2.44-15.28,5.94-15.28,10.71s5,8.27,15.28,10.71c8.35,2,19.39,3.08,31.09,3.08s22.75-1.1,31.09-3.08C101,62.83,106,59.33,106,54.56S101,46.29,90.68,43.85Zm10.9,10.23c0,4.63-17.24,9.78-42,9.78s-42-5.15-42-9.78,17.25-9.78,42-9.78S101.58,49.46,101.58,54.08Z"/><path d="M115.49,47a14.9,14.9,0,0,0,1.69-1.3,2.87,2.87,0,0,0,.52-3.56C117,41,114,36.65,114,36.65a6.56,6.56,0,0,0,1.26-1.15c.63-.74,1.89-1.44.37-3.48a67.36,67.36,0,0,1-3.6-5.78A14.5,14.5,0,0,0,113.44,25a3.28,3.28,0,0,0,0-3.9c-.81-1.07-7.67-10.56-8.52-11.26a3,3,0,0,0-3.75.29c-.92,1-5,6-5,6s-4.59-9.86-6.19-13S86.79,0,85.57,0a3,3,0,0,0-3,2C81.87,3.67,71,25.31,71,25.31s-3.92-7.52-5-9.74-1.85-3.67-4.63-3.67-4.3,4.81-5.6,7.74a25,25,0,0,1-3.52,5.49l-1.7-2.56s.66-.74,1.37-1.67a2.3,2.3,0,0,0,0-3c-.78-1.22-6.6-9.23-7.67-10.67s-3.41-1.08-4.41.22S34,15.08,32,17.27a2.65,2.65,0,0,0,.41,4.15c.33.3,1.29.93,1,1.22s-2.56,3.23-3.41,4.3a2.92,2.92,0,0,0,0,3.23c.45.59,1.56,1.59,1.41,1.89s-1.87,2.48-1.87,2.48h0C11.85,38.61,0,46.14,0,54.77,0,67.71,15,78.2,59.44,78.2s59.45-10.49,59.45-23.43A11.69,11.69,0,0,0,115.49,47Zm-56,26.49c-40.81,0-54.55-8.59-54.55-19.19s24.43-19.2,54.55-19.2S114,43.65,114,54.26,100.26,73.45,59.44,73.45Z"/></g></g></svg>