<svg xmlns="http://www.w3.org/2000/svg" viewBox="0 0 115.94 73.05"><title>kanu</title><g id="Layer_2" data-name="Layer 2"><g id="Layer_1-2" data-name="Layer 1"><path d="M47.27,42.71,40,57.81a10.62,10.62,0,0,0-6.21.46,15.32,15.32,0,0,0-5.52,3.51,9.33,9.33,0,0,0-7.71-4.2c-5.61-.32-6.94.41-6.94.41S2.51,50.83,2.1,41.11,5.2,28.79,8,30.34s10.17,5.2,13,6.44a28.37,28.37,0,0,0,4.93,1.69s4.47-17.12,8-19.72,6.71-3,9.54-.45,9.08,8,9.08,8l9.12-4.56S67.71,9,68.44,7.35s3.33-.28,2.79.91-5.57,12.91-5.57,12.91a3.7,3.7,0,0,1,1.64,3.29c-.09,2.28-1.91,3.24-3.19,3.92a19.68,19.68,0,0,1-2.83,1.19L45.36,64.29a3.26,3.26,0,0,0,3,1.74c2.23,0,4.56-4.16,9.81-4.16s6.61,3.93,9.76,3.93,3.83-4.25,9.9-4.25,6.21,4.16,10,4.16,4.24-4,10.13-4S104.44,66,107.73,66,111,63.61,113,63.79s3.78,3.51,2.55,5.38a9.49,9.49,0,0,1-7.89,3.7c-3.79,0-7.26-4.06-9.86-4.06s-4.24,4.06-10,4.06-7.07-4-9.85-4-3.29,4-10.13,4S61.92,69,58.18,69s-2.6,3.88-9.59,3.88-6.7-4-9.94-4-3.61,4-10.13,4-6.66-4.29-9.86-4.29-3.56,4.47-9.58,4.47S0,69.36,0,67.58s.68-3.33,2.74-3.79,2.83.91,4.42,1.78,3.11.09,4.52-1.14a8.55,8.55,0,0,1,6.85-2.74c4.1,0,6.34,4.06,9.85,4.06s4.34-3.92,8.4-3.92,5.61.86,5.61.86l14-30.34a31.84,31.84,0,0,1-3.61,1.78,3.49,3.49,0,0,1-3.42-1.05c-.78-.68-4.93-3.74-4.93-3.74L39.74,41.8Z"/><circle cx="48.69" cy="8.44" r="8.44"/><path d="M52.12,59l7.55-15.52s18.19-.36,30.42-4.92,16.85-8,18.67-8.46,4.14.79,5,4.44.85,11.74-4.19,16.73a78,78,0,0,1-7.91,7.06,19.8,19.8,0,0,0-5.84-.67c-3.9,0-7.91,3.65-7.91,3.65a17.87,17.87,0,0,0-10.47-3.83,13.89,13.89,0,0,0-9.55,3.83,11.37,11.37,0,0,0-8-3.65A19.35,19.35,0,0,0,52.12,59Z"/></g></g></svg>