<svg xmlns="http://www.w3.org/2000/svg" viewBox="0 0 103.12 103.12"><title>lgbt</title><g id="Layer_2" data-name="Layer 2"><g id="Layer_1-2" data-name="Layer 1"><path d="M81.78,0V7.11h8.89L69.5,28.29a26.6,26.6,0,0,0-35.88,0l-6.06-6.07L32,17.78l-5.33-5.33-4.45,4.44L12.45,7.11h8.88V0H0V21.33H7.11V12.45l9.78,9.77-4.44,4.45L17.78,32l4.44-4.44,6.56,6.56A26.67,26.67,0,0,0,48,74.42v12.7H40.89v7.11H48v8.89h7.11V94.23h7.12V87.12H55.11V74.42a26.65,26.65,0,0,0,19.22-40.3L96,12.45v8.88h7.12V0ZM51.56,65.78A17.78,17.78,0,1,1,69.34,48,17.78,17.78,0,0,1,51.56,65.78Z"/></g></g></svg>