<svg xmlns="http://www.w3.org/2000/svg" viewBox="0 0 88.45 87.38"><title>manifestacije</title><g id="Layer_2" data-name="Layer 2"><g id="Layer_1-2" data-name="Layer 1"><path d="M27.74,5.85v5.37H52.56s.07,3.19,2.49,3.19,3-1.54,3-3.23v-9c0-1.41-1.81-2.13-3-2.13a2.46,2.46,0,0,0-2.48,2.22V5.94Z"/><path d="M42.21,69.46a16.33,16.33,0,0,0,.64,3.08c.37.83,1.06,2.62,1.06,2.62H9.34C5.16,75.16,0,72.63,0,66.33V14.68C0,11.23,2.81,6,6.77,6H17.26V2.53A2.79,2.79,0,0,1,20.16,0c1.38,0,2.72.51,2.72,2.21V12.7c0,1.11-1.2,1.61-2.58,1.61s-2.67-1.05-2.67-1.84V11.14H7.92c-1.29,0-2.3,1.56-2.3,2.85v6.49H69.69V13.62a2.69,2.69,0,0,0-2.86-2.48H62.32V5.8h5c2.16,0,7.82,2,7.82,6.9v30a24.77,24.77,0,0,0-3.08-1c-1.43-.32-2.39-.46-2.39-.46V24.76h-64V66.13c0,2.68,1.38,3.28,2.58,3.28Z"/><path d="M66.46,63.53S83.4,51,86.1,49.3s3-.37,1.35,2.14S70.39,71.33,67.69,73s-3.86.12-5.09-2-5.28-9.7-5.89-11.23-.13-2.15,1-1.72S66.46,63.53,66.46,63.53Z"/><path d="M83.56,62.2A17,17,0,0,1,84,66.13a17.3,17.3,0,1,1-8-14.61h0l3.23-2.58A21.25,21.25,0,1,0,88,66.13,21.32,21.32,0,0,0,86.75,59Z"/><rect x="12.24" y="52.56" width="12.66" height="9.67" rx="3.57" ry="3.57"/><rect x="31.25" y="35.53" width="12.66" height="9.67" rx="3.57" ry="3.57"/><rect x="12.24" y="35.53" width="12.66" height="9.67" rx="3.57" ry="3.57"/><path d="M43.91,54.69v-.56a1.56,1.56,0,0,0-1.56-1.57H32.82a1.57,1.57,0,0,0-1.57,1.57v6.54a1.56,1.56,0,0,0,1.57,1.56h8.69A25.47,25.47,0,0,1,43.91,54.69Z"/><path d="M51.83,45.2h.3a25.47,25.47,0,0,1,10.79-4.31V37.1a1.56,1.56,0,0,0-1.56-1.57H51.83a1.57,1.57,0,0,0-1.57,1.57v6.53A1.57,1.57,0,0,0,51.83,45.2Z"/></g></g></svg>