<svg xmlns="http://www.w3.org/2000/svg" viewBox="0 0 77 87.01"><title>muzeji</title><g id="Layer_2" data-name="Layer 2"><g id="Layer_1-2" data-name="Layer 1"><path d="M74.27,35V30.12H77v-4.2L38.84,0,.68,25.33v4.79h2.4V35H5.3V78H3.08v4.53H0V87H76.83V82.56H74.27V78H72V35ZM48.34,30.12V35h2.23V78H48.34v4.53H45V59.38H32.26V82.56H29.18V78H27V35h2.23V30.12ZM11.72,78V35H14V30.12h4.36V35h2.22V78H18.31v4.53H14V78Zm53.9,0H63.4v4.53H59.21V78H57V35h2.23V30.12H63.4V35h2.22Z"/><rect x="40.98" y="37.65" width="6.33" height="11.55"/><rect x="29.77" y="37.65" width="6.33" height="11.55"/></g></g></svg>