<svg xmlns="http://www.w3.org/2000/svg" viewBox="0 0 112.64 125.19"><title>naslijedje</title><g id="Layer_2" data-name="Layer 2"><g id="Layer_1-2" data-name="Layer 1"><path d="M70.75,114.91l3.81-8L96.15,117.2l-3.81,8Z"/><path d="M105.28,51.56a.09.09,0,0,0,0,0l.34,13.9a9.89,9.89,0,0,1,1.79.66,1.87,1.87,0,0,1,.88,2.5l-8.12,17.06a1.88,1.88,0,0,1-3.39-1.62L104,69a6.68,6.68,0,0,0-7.08,3.72L92,83.09a15.63,15.63,0,0,1-4.31,5.44l-1,.82a17.18,17.18,0,0,0-6.24,16.19l14.26,6.79-.22-1.28a1.08,1.08,0,0,1,0-.19,9,9,0,0,1,2.07-6.48l12.89-15.6a17.69,17.69,0,0,0,3.27-10.37L107.7,47.29a4.58,4.58,0,0,0-2.42,4.27Z"/><path d="M18.23,110.86a1.11,1.11,0,0,1,0,.19L18,112.33l14.26-6.79A17.16,17.16,0,0,0,26,89.35l-1-.82a15.72,15.72,0,0,1-4.3-5.44l-5-10.38A6.68,6.68,0,0,0,8.64,69l7.2,15.12a1.87,1.87,0,1,1-3.38,1.62L4.33,68.67a1.87,1.87,0,0,1,.89-2.5A9.62,9.62,0,0,1,7,65.51l.34-13.9v0a4.57,4.57,0,0,0-2.42-4.27L0,78.41A17.77,17.77,0,0,0,3.28,88.78l12.89,15.6a9.08,9.08,0,0,1,2.06,6.48Z"/><path d="M16.49,117.2l21.59-10.28,3.8,8L20.3,125.19Z"/><rect x="63.28" y="28.57" width="2.41" height="21.7"/><rect x="69.44" y="28.57" width="5.09" height="21.7"/><rect x="78.29" y="28.57" width="2.68" height="21.7"/><path d="M60.72,15.23a4.41,4.41,0,1,1-4.4-4.41,4.4,4.4,0,0,1,4.4,4.41Z"/><path d="M56.32,0,28.13,24.82H84.5Zm0,23.39a8.16,8.16,0,1,1,8.15-8.16,8.16,8.16,0,0,1-8.15,8.16Z"/><rect x="26.05" y="54.02" width="60.54" height="2.14"/><rect x="53.1" y="28.57" width="6.43" height="21.7"/><rect x="31.67" y="28.57" width="2.68" height="21.7"/><rect x="21.49" y="59.91" width="69.65" height="2.95"/><rect x="46.94" y="28.57" width="2.41" height="21.7"/><rect x="38.1" y="28.57" width="5.09" height="21.7"/></g></g></svg>