<svg xmlns="http://www.w3.org/2000/svg" viewBox="0 0 62.94 105.22"><title>nekropole stecaka</title><g id="Layer_2" data-name="Layer 2"><g id="Layer_1-2" data-name="Layer 1"><path d="M31.47,0,0,15l6,90.22H56.94l6-90.22ZM45.3,58.39c-2.25,1.32-8.85,4.21-8.85,4.21l3.32,9.59a5.73,5.73,0,0,1,1,.64c.49.39.44,1.71,0,1.71s-2.84-.15-2.84-.15.93,8.32.88,9.49S34.44,94.6,34.44,94.6a6.68,6.68,0,0,1,1.27-.74c.54-.19,1.52,1,1.52,1.42a1.88,1.88,0,0,1-1.52,1.27,18.88,18.88,0,0,1-3.67-1c-.39-.24-.14-1.51-.1-3s2.74-9.2,2.74-9.2l-1.61-9.49h-2.4L27.2,82.41s.73,11.7.44,12.82-1.37.64-2.54.54S21.52,94,21.52,94c-.55-.37-.44-1.27.35-1.66s2.88-1.57,2.88-1.57-.73-7.29-.63-8.66,1.71-8.51,1.71-8.51-1.52,0-1.37-.69,3.47-9.39,3.47-9.39a15.47,15.47,0,0,1-.34-2,3,3,0,0,1,.64-1.67s-2-12.52-2.2-13.21-1.13-.29-1.67.69-4.11,8.8-4.84,9.1-1.13,0-1.57-1.13S14.38,43.33,13.65,40s-2.64-9.1-3.13-11.4a33.41,33.41,0,0,1-.59-6.65c.05-1.18.59-1.37.78-1.13s.88,5.29.93,5.73.49.24.44,0-.44-5.63-.44-6.12.74-.44,1-.1a36.69,36.69,0,0,1,.83,5.48.87.87,0,0,0,.74.74s-.05-5.58,0-6.26a.62.62,0,0,1,1.12-.4c.39.44.24,3.43.39,4.9s.74,1.51.74,1.51.44-4.2.44-4.69.73-.35.93.09A50.84,50.84,0,0,1,18,28.41c-.09,1.07-.39,3.76-.39,3.76s3.43-4,4-4.11.84.59.49,1.13a48.56,48.56,0,0,1-3,4.21,8.23,8.23,0,0,1-2.74,2.25s2,8.21,2.25,8.46a1,1,0,0,0,.78.1s4.95-6.36,6-7.19,1.66-.3,1.66-.3l2.5-.88v-4a14.14,14.14,0,0,1-1-4.94,13.67,13.67,0,0,1,.88-4.75A16.36,16.36,0,0,1,30,19.21c.24-.3,1.86-.15,1.86-.15a5.14,5.14,0,0,1,2,0c1,.25.69.59.69.59l1.27.24c.54.1.78.25.93,1.32s-.83,5.34-1.22,7.05a23.57,23.57,0,0,1-1.67,4.25V35s5.73,2.15,7.44,3.47,2.59,3.87,4.11,6.66,3.91,6.75,4.16,8.26S47.55,57.07,45.3,58.39Zm8.44-31.11c-.66.66-3.56,5.28-3.56,5.28l1,3.93c1,3.93.07,10.75-.22,11.63s-1,.22-1,.22a4.67,4.67,0,0,1-.77-.18c-.44-.15-.77-1.73-2-4.55s-7.16-13-7.45-14.31.45-1.51.45-1.51a10.16,10.16,0,0,1-.52-2.38c.12-.4.62,0,4.69,1.72a8.33,8.33,0,0,1,4.92,5.14s4-7.34,4.66-7.37.88.14,1.06.91S54.4,26.62,53.74,27.28Z"/><path d="M39.25,45.66a69.1,69.1,0,0,0-2,7.82c-.55,3.26-1,3.93-.63,4.27s1.47-1.26,3.23-2.4S43.72,53,43.72,53a23,23,0,0,0-2.2-5A7.84,7.84,0,0,0,39.25,45.66Z"/><path d="M45,29.63a10.74,10.74,0,0,0-4-1c-.47,0-.88.22-.62.66S44,36,44.23,36.31s.42.76.78.42,3.12-3.84,3.12-3.84A6.74,6.74,0,0,0,45,29.63Z"/><path d="M48.57,34l-2.94,4.08s1.06,2,1.8,3.48,2.27,5.14,2.57,5,.36-1,.14-4.66A32.24,32.24,0,0,0,48.57,34Z"/></g></g></svg>