<svg xmlns="http://www.w3.org/2000/svg" viewBox="0 0 107.77 108.39"><title>paraglajding</title><g id="Layer_2" data-name="Layer 2"><g id="Layer_1-2" data-name="Layer 1"><path d="M66.89,90h0L59.12,77.83h0a3.61,3.61,0,0,0-3-1.61,3.68,3.68,0,0,0-.82.09h0L42.74,79.46l-5.11-8.9,4.89,1.1.12,0h0a3.6,3.6,0,0,0,.66.06,3.53,3.53,0,0,0,1.83-.5h0l8.29-3.52h0a3.6,3.6,0,1,0-2-6.85h0l-8.17,3.68a3.91,3.91,0,0,0-1,.13h0L30,61.18h0A7.45,7.45,0,0,0,19.54,68a7.31,7.31,0,0,0,.31,2.1h0A7.47,7.47,0,0,0,21.49,73l6.64,11.8a7.51,7.51,0,0,0,.62,1.11h0a7.46,7.46,0,0,0,9.69,2.36h0c.18-.1,15.86-5.12,15.86-5.12l6.61,10.75h0a3.6,3.6,0,1,0,6-4Z"/><path d="M49.27,91.3c-1.12-.86-5-3-5-3l-5.91,3.09a3.53,3.53,0,0,1-1.27.36c.13,0,6.34,4.12,6.34,4.12l-1.62,7.84a2.94,2.94,0,0,0-.12.59v0h0c0,.14,0,.27,0,.41a3.6,3.6,0,0,0,7,1.21h0a3.68,3.68,0,0,0,.2-1.2v-.14c.42-2.82,1.36-9.17,1.5-10.09A3.2,3.2,0,0,0,49.27,91.3Z"/><circle cx="17.26" cy="52.59" r="7.7" transform="translate(-37.93 48.41) rotate(-67.5)"/><path d="M105.18,19.94C102.14,16.49,84.68,0,52.31,0S2.28,18.58.86,22.59s-1,5,.68,6.8c1.32,1.4,5.08,4.83,6.66,6.27a7,7,0,0,0,.7.63l0,0h0A7.71,7.71,0,0,0,13.7,38a7.62,7.62,0,0,0,3.8-1h0a7.79,7.79,0,0,0,1.9-1.53A64,64,0,0,1,28.07,30L48.61,59.92a6,6,0,0,1,4.13-1.84L41.3,24.89a53,53,0,0,1,13.21-1.7,51.12,51.12,0,0,1,11.71,1.36L55,58.4a6.12,6.12,0,0,1,3.36,2.84L80,30.07l-.6-.49a52.22,52.22,0,0,1,9.06,6.12,7.75,7.75,0,0,0,1.24,1.12h0a7.67,7.67,0,0,0,9.27-.2h0a7.55,7.55,0,0,0,1.11-1.08c1.93-1.87,5.78-5.62,6.8-6.67C108.28,27.45,108.23,23.39,105.18,19.94ZM49.88,57.77l-20-28.68a62.35,62.35,0,0,1,9.05-3.54Zm7.74-.1L68.38,25.2l-.3-.17a54.07,54.07,0,0,1,9.6,3.66Z"/></g></g></svg>