<svg xmlns="http://www.w3.org/2000/svg" viewBox="0 0 83.98 96.47"><title>penjanje</title><g id="Layer_2" data-name="Layer 2"><g id="Layer_1-2" data-name="Layer 1"><circle cx="33.72" cy="10.3" r="10.22"/><path d="M73.53,70.89l0-.28a.28.28,0,0,0,0-.09c-.23-3-1.8-23.17-1.81-23.54h0a5.43,5.43,0,0,0-8.23-4.23h0L31.59,56.19,21.86,85.34a6.3,6.3,0,0,0-.42,1.27v0h0A6.53,6.53,0,0,0,21.29,88a6.35,6.35,0,0,0,12.44,1.81h0L41.88,65l17.87-7.89,1.11,14.71h0a6.35,6.35,0,0,0,12.67-.58c0-.11,0-.21,0-.31Z"/><path d="M48.57,94.52h0v0a1.93,1.93,0,1,0,3.86,0v-.05h0V65.19l-3.86,1.49Z"/><path d="M69.75,11.41h0A5.31,5.31,0,1,0,62.17,4h0l0,.07L62,4.19l-15.69,19-28.95,10-7.16-11h0A5.31,5.31,0,1,0,.71,26.89h0L.76,27c.07.12.15.24.23.36l9.24,14.22h0a3.91,3.91,0,0,0,3.69,2.64A4.19,4.19,0,0,0,15,44.05h0l.06,0h0l14.29-4.2,1.49,12.41,19.58-8.77V34.91Z"/><path d="M82.05,0a1.93,1.93,0,0,0-1.93,1.93s-2.94,15.13-9.78,24.91S50.45,43.46,50.45,43.46v4.76s16.43-7.25,24.38-21c7.41-12.83,8.88-22.84,9.11-24.89a1.67,1.67,0,0,0,0-.39A1.92,1.92,0,0,0,82.05,0Z"/></g></g></svg>