<svg xmlns="http://www.w3.org/2000/svg" viewBox="0 0 126.98 126.98"><title>pet friendly</title><g id="Layer_2" data-name="Layer 2"><g id="Layer_1-2" data-name="Layer 1"><path d="M124,42.59,70.19,2.23a11.24,11.24,0,0,0-13.39,0L3,42.59A7.44,7.44,0,1,0,11.91,54.5l49.35-37a3.72,3.72,0,0,1,4.46,0l49.36,37A7.44,7.44,0,0,0,124,42.59Z"/><path d="M92,7.44h3.72v4.65l14.88,11.16V7.44h3.73a3.72,3.72,0,0,0,0-7.44H92a3.72,3.72,0,1,0,0,7.44Z"/><path d="M63.49,81.85c-7.52,0-13.64,5.56-13.64,12.4,0,2.6,0,7.44,13.64,7.44s13.64-4.84,13.64-7.44c0-6.84-6.12-12.4-13.64-12.4Z"/><path d="M59.77,70.81a5,5,0,1,1-5-5,5,5,0,0,1,5,5Z"/><path d="M77.13,70.81a5,5,0,1,1-5-5,5,5,0,0,1,5,5Z"/><path d="M46.38,81.35a3.72,3.72,0,1,1-3.72-3.72,3.73,3.73,0,0,1,3.72,3.72Z"/><path d="M88.05,81.35a3.72,3.72,0,1,1-3.72-3.72,3.73,3.73,0,0,1,3.72,3.72Z"/><path d="M63.49,25.11,15.13,61.38v61.88A3.71,3.71,0,0,0,18.85,127h89.28a3.74,3.74,0,0,0,3.73-3.72V61.38Zm21,67.4c.05.57.08,1.15.08,1.74,0,5.51-2.44,9.73-7,12.2-3.38,1.8-8,2.68-14,2.68s-10.65-.88-14-2.68c-4.61-2.47-7.05-6.69-7.05-12.2a16.61,16.61,0,0,1,.09-1.74,11.16,11.16,0,0,1-.07-22.31A12.38,12.38,0,0,1,63.49,62,12.39,12.39,0,0,1,84.56,70.2a11.16,11.16,0,0,1-.07,22.31Z"/></g></g></svg>