<svg xmlns="http://www.w3.org/2000/svg" viewBox="0 0 83.65 99.34"><title>Pivo</title><g id="Layer_2" data-name="Layer 2"><g id="Layer_1-2" data-name="Layer 1"><path d="M72.33,38.33H61.86V36.61a13.84,13.84,0,0,0-5.64-24.74A16.1,16.1,0,0,0,29.68,4.35a12.71,12.71,0,0,0-3.25-.42,12.86,12.86,0,0,0-11.76,7.72l-.82,0A13.85,13.85,0,0,0,4.85,36V93.28a6.08,6.08,0,0,0,6.06,6.06H55.8a6.08,6.08,0,0,0,6.06-6.06V84.39H72.33A11.34,11.34,0,0,0,83.65,73.07V49.64A11.33,11.33,0,0,0,72.33,38.33ZM53.64,31.65H18.18V44a3.84,3.84,0,0,1-7.68,0V30.66a6.17,6.17,0,0,1,3.35-11.35,6.25,6.25,0,0,1,2.23.41A3.84,3.84,0,0,0,21.3,16.4a5.15,5.15,0,0,1,7.61-4.16,3.83,3.83,0,0,0,4.95-1.1A8.44,8.44,0,0,1,49.1,15.68a3.86,3.86,0,0,0,1.28,2.69,3.83,3.83,0,0,0,2.82.95h.44a6.17,6.17,0,1,1,0,12.34Zm19.5,41.42a.83.83,0,0,1-.81.81H61.86v-25H72.33a.83.83,0,0,1,.81.81Z"/></g></g></svg>