<svg xmlns="http://www.w3.org/2000/svg" viewBox="0 0 90.49 99.65"><title>planinarenje</title><g id="Layer_2" data-name="Layer 2"><g id="Layer_1-2" data-name="Layer 1"><circle cx="36.13" cy="9.51" r="9.51"/><path d="M53.4,42.56h0L40.85,39.39,36.34,25.77h0a5.12,5.12,0,1,0-9.45,3.82h0L32.65,45.1h0a5.12,5.12,0,0,0,4.15,3.16h0l14.1,4.17a3.5,3.5,0,0,0,.46.14l.08,0h0a4.83,4.83,0,0,0,1.15.14,5.12,5.12,0,0,0,.81-10.18Z"/><path d="M24.32,22.94l.29-.24,0,0h0a6.64,6.64,0,0,0-3.43-11.54h0l-.46-.05L7.36,9.66l0,0c-.23,0-.46,0-.7,0a6.64,6.64,0,0,0-.56,13.26h0L18.9,24.21a6.55,6.55,0,0,0,1.34.14,7.77,7.77,0,0,0,1-.07,13.24,13.24,0,0,0-1.16,4c-.38,3.12-2,14.21-2,14.21l8.55-4.64s-3.19-8.16-3.54-10.22A5.06,5.06,0,0,1,24.32,22.94Z"/><polygon points="17.05 26.08 14.88 41.67 4.17 29.03 4.58 24.35 17.05 26.08"/><path d="M14.12,46.06s-.6,4.51-.68,6.09a15.16,15.16,0,0,0,.68,4,55.5,55.5,0,0,1-6.91-.76A7,7,0,0,1,2.06,48.3C2.41,44.37,3.7,33.36,3.7,33.36Z"/><path d="M52.07,78.18l-1.77-13c0-.17,0-.34-.07-.51v-.06h0A5.12,5.12,0,0,0,48,61.38h0L36.55,53.64V51.89s-4.61-1.14-5.84-3.13a56.92,56.92,0,0,1-3.13-7.55L17.52,46.65l-.4,6.16a5.69,5.69,0,0,0-.07.83,1.09,1.09,0,0,0,0,.18V54a.91.91,0,0,0,0,.16,4.74,4.74,0,0,0,.18.94,30.06,30.06,0,0,0,.91,3.29C19,61,22.84,73,22.84,73l-4.26,16A5.8,5.8,0,1,0,29.49,93h0a5.54,5.54,0,0,0,.14-.55L34.18,74.6a5.8,5.8,0,0,0,.16-.63v0h0a4.6,4.6,0,0,0,.09-.91,5.1,5.1,0,0,0-.38-1.92h0l-2-6.53,7.14,4.86,1.52,11.12a5.79,5.79,0,1,0,11.32-2.36Z"/><path d="M90.49,45.8a3.31,3.31,0,0,0-6-1.87h0L72.28,60.2h0a3.41,3.41,0,0,0-.49,1h0L66.58,79.25l-7.26,1a3.22,3.22,0,0,0-1.08.18h0a3.28,3.28,0,0,0-1,.58L35.43,93.38h0a3.31,3.31,0,0,0,1.47,6.27,3.39,3.39,0,0,0,1.7-.47h0L60,86.76l9.53-1.56h0a3.3,3.3,0,0,0,2.7-2.61h0l5.41-18.5h0a3.66,3.66,0,0,0,.45-.88h0L89.73,47.91l0,0,0-.07h0A3.3,3.3,0,0,0,90.49,45.8Z"/></g></g></svg>