<svg xmlns="http://www.w3.org/2000/svg" viewBox="0 0 101.37 56.56"><title>planine</title><g id="Layer_2" data-name="Layer 2"><g id="Layer_1-2" data-name="Layer 1"><path d="M47.71.31.24,54a.93.93,0,0,0,1.09,1.45L13,49.9a.93.93,0,0,1,1.3.64l.7,3.14a.93.93,0,0,0,1.5.51l11-9.21a.94.94,0,0,1,1.29.09l6.83,7.62a.92.92,0,0,0,.94.27l8.64-2.45a.92.92,0,0,1,.57,0l11.9,4.25a.93.93,0,0,0,.73,0l10.53-5.27a1,1,0,0,1,.79,0l15.23,6.83a.9.9,0,0,0,.77,0l4.57-2.11a1,1,0,0,1,.62-.06l9.36,2.43a.92.92,0,0,0,.9-1.53L49.07.29A.92.92,0,0,0,47.71.31Zm16.37,28,1.84,7.41a.93.93,0,0,1-1.6.83L54.13,25a.93.93,0,0,0-1.44.06l-5.61,7.58a.92.92,0,0,1-1.61-.23l-1.23-3.27a.92.92,0,0,0-1.49-.36l-.63.57a.92.92,0,0,1-1.54-.56l-.28-2.07a.92.92,0,0,0-1.59-.5l-5,5.39a.93.93,0,0,1-1.59-.81l.73-3.62a.93.93,0,0,0-1.41-1h0a.92.92,0,0,1-1.22-1.36l17-20.63a.91.91,0,0,1,1.4,0L70,28.23a.92.92,0,0,1-1.22,1.37l-3.26-2.25A.93.93,0,0,0,64.08,28.33Z"/></g></g></svg>