<svg xmlns="http://www.w3.org/2000/svg" viewBox="0 0 98.22 112.52"><title>priroda</title><g id="Layer_2" data-name="Layer 2"><g id="Layer_1-2" data-name="Layer 1"><path d="M12.21,101.43V84.27A53.25,53.25,0,0,1,23.84,50.85,54.06,54.06,0,0,1,53.09,32c4-1,8-2.05,11.82-3.13A95.12,95.12,0,0,0,51.15,4.28L47.91,0A307.26,307.26,0,0,1,17.07,29.1a47.42,47.42,0,0,0-15.91,26A46.68,46.68,0,0,0,4.74,86Z"/><path d="M96.31,31.7A194.85,194.85,0,0,1,76.87,62.64a247,247,0,0,1-27.4,30.21A265.56,265.56,0,0,1,26,112.52h3.29c13.2,0,24.8-2,34.47-5.92A53.8,53.8,0,0,0,85.45,91C97.1,76.77,101,55.74,96.31,31.7Z"/><path d="M71.69,58.57A187.1,187.1,0,0,0,91.18,27.19c-6.69,2.54-13.77,4.92-21.09,7.08H70l-3,.9v0c-4,1.13-8.11,2.23-12.32,3.27A47.4,47.4,0,0,0,29,54.94,46.73,46.73,0,0,0,18.8,84.27V109.6A261.64,261.64,0,0,0,45.07,87.93,241.6,241.6,0,0,0,71.69,58.57Z"/></g></g></svg>