<svg xmlns="http://www.w3.org/2000/svg" viewBox="0 0 145.64 104.62"><title>rafting</title><g id="Layer_2" data-name="Layer 2"><g id="Layer_1-2" data-name="Layer 1"><path d="M93.34,79.21l1.47,4.15s10.78-5.16,14.8-5.16,11.12,6,18.15,6c3,0,5.34-1.16,7.57-2.14,2.95-1.31,5.51-2.59,7-3.09a10.78,10.78,0,0,1,3.3-.8V70.81A68.89,68.89,0,0,0,134,74.45c-6.36,2.61-8,2.55-12.73.27s-8.84-3.62-12.65-3.62S97,74.79,97,74.79Z"/><path d="M73.38,70.81,64.54,80.88s-5.43,3.35-10.11,3.35S41,79.34,41,79.34l5-6s5.22,3.55,8.57,3.55,7.37-3.28,11.59-4.56A41.7,41.7,0,0,1,73.38,70.81Z"/><path d="M0,70.81v7.32a11.11,11.11,0,0,1,4.87,1.39,65.23,65.23,0,0,0,6,2.68L16,76.5A96,96,0,0,0,5.49,71.93,23.26,23.26,0,0,0,0,70.81Z"/><path d="M63.53,39.07,31.92,75.68l-4.6-1c-1.56-.36-2.36-.45-2.72-.13S9.91,90.81,8.57,92.11s0,4.51,3.44,8.48,8.75,4.38,10,3.31,14.6-16.52,15.22-17.19.45-1.57.05-2.73-2-5.4-2-5.4l10.27-12S50.68,70,54.65,70s13.57-6,18.8-6,11.69,4.1,11.69,4.1l23.22-26.92V36.57L116,39,84.61,75.77s-3.93-1-5.27-1.16-2.14-.41-2.72.09-14.16,15.94-15.1,17a2.5,2.5,0,0,0-.84,2.32c0,1.07.67,2.77,3.79,6.39s8.4,4.64,9.38,4,14.82-16.88,15.49-17.5.85-.8.67-1.74-2.28-6.7-2.28-6.7L96.39,68.4s6.57-4.15,12.19-4.15,10.36,2.68,12.55,3.75,5.8,2.77,8.21,1.83S139,65.68,139,65.68s3.31-3.35,3.31-10.09-7.46-12-11.61-12H118.09L120.68,40s2.53-.33,3.26-2.19c1-2.5-.31-4-2.23-4.88s-9.55-3-9.55-3-5.18-4.51-8.22-6.56-6.21-1.16-8.53,1.07-9.51,12-11.56,14.33,0,4.91,0,4.91H65.45L68.53,40a4.79,4.79,0,0,0,3.09-1.61c1.2-1.47.26-4.37-1-5s-10.49-3.4-10.49-3.4a79,79,0,0,0-8-6.6c-2.81-1.79-4.64-1.12-7.41.22s-10.72,12.72-13,15,0,5.09,0,5.09H19.6c-3.55,0-12.79,3.1-12.79,13.42S15.11,70,18.46,70s6.9-3,9.65-3.95a71.84,71.84,0,0,1,8.37-1.87L56.3,40.83V36.61Z"/><circle cx="102.02" cy="9.29" r="9.29"/><circle cx="50.23" cy="9.29" r="9.29"/></g></g></svg>