<svg xmlns="http://www.w3.org/2000/svg" viewBox="0 0 86.8 65.91"><title>restoran</title><g id="Layer_2" data-name="Layer 2"><g id="Layer_1-2" data-name="Layer 1"><circle cx="44.07" cy="32.15" r="19.52"/><path d="M82.09,33.47s-1.93,16.32-1.25,23.05,1.75,9.33,3.14,9.33,2.82-4.71,2.82-9.64S86.4,38,86.4,33.06V2.24C86.4-.18,84.07-.45,83,1.17s-4.26,9.82-4.26,19S82.09,33.47,82.09,33.47Z"/><path d="M10.16,0H9V13.64H7.53V0H5.94V13.76H4.58V0H3V13.64H1.5V0H.36C.06,0,0,.54,0,2.06V14c0,3.44.69,5.92,1.79,7.2a11.75,11.75,0,0,0,2.28,2S2.36,40.31,2.3,48.36s.3,12.44.75,14.17,1,3.38,2.21,3.38S7,64.23,7.47,62.53s.81-6.13.75-14.17S6.45,23.21,6.45,23.21a11.75,11.75,0,0,0,2.28-2c1.1-1.28,1.79-3.76,1.79-7.2V2.06C10.52.54,10.46,0,10.16,0Z"/><path d="M44.07,1.88A30.28,30.28,0,1,0,74.35,32.15,30.28,30.28,0,0,0,44.07,1.88Zm0,53.16A22.89,22.89,0,1,1,67,32.15,22.89,22.89,0,0,1,44.07,55Z"/></g></g></svg>