<svg xmlns="http://www.w3.org/2000/svg" viewBox="0 0 109.06 76.68"><title>rijeke</title><g id="Layer_2" data-name="Layer 2"><g id="Layer_1-2" data-name="Layer 1"><path d="M29.39,30.08c-14.14,0-21.45-6.27-27.9-11.81A4.26,4.26,0,0,1,7,11.81c6.1,5.23,11.37,9.75,22.36,9.75S45.65,17,51.76,11.81C58.21,6.27,65.52,0,79.66,0s21.46,6.27,27.91,11.81A4.26,4.26,0,1,1,102,18.27C95.92,13,90.65,8.52,79.66,8.52S63.4,13,57.3,18.27C50.85,23.81,43.54,30.08,29.39,30.08ZM57.3,41.57c6.1-5.23,11.37-9.75,22.36-9.75S95.92,36.34,102,41.57a4.26,4.26,0,1,0,5.55-6.46C101.12,29.57,93.81,23.3,79.66,23.3s-21.45,6.27-27.9,11.81c-6.11,5.23-11.38,9.75-22.37,9.75S13.13,40.34,7,35.11a4.26,4.26,0,1,0-5.54,6.46c6.45,5.54,13.76,11.81,27.9,11.81S50.85,47.11,57.3,41.57Zm0,23.31c6.1-5.24,11.37-9.76,22.36-9.76S95.92,59.64,102,64.88a4.26,4.26,0,1,0,5.55-6.47C101.12,52.87,93.81,46.6,79.66,46.6s-21.45,6.27-27.9,11.81c-6.11,5.23-11.38,9.75-22.37,9.75S13.13,63.64,7,58.41H7a4.26,4.26,0,0,0-5.54,6.47c6.45,5.53,13.76,11.8,27.9,11.8S50.85,70.41,57.3,64.88Z"/></g></g></svg>