<svg xmlns="http://www.w3.org/2000/svg" viewBox="0 0 90.13 86.96"><title>skijanje</title><g id="Layer_2" data-name="Layer 2"><g id="Layer_1-2" data-name="Layer 1"><path d="M31,25.17,54.42,38.41s6,6.13,6.5,6.89a3.35,3.35,0,0,1-.62,4.41C58.52,51.4,42.48,64.54,42.48,64.54s15.46,9,20.89,11.89S73.31,79.77,76,79.55a28.26,28.26,0,0,0,6-1.38c1.21-.31,3.74-.49,4.46,1.83s0,3.87-1.43,4.58a23,23,0,0,1-15.5,1.7c-7.39-2-11.53-4.5-18.48-8.47S4.22,51.09,1.91,49.8A3.71,3.71,0,0,1,.62,44.5a3.21,3.21,0,0,1,4.41-1c2.09,1,30.68,17.22,30.68,17.22l.49-.31,9.67-11.85s-9.58-7.35-13-10.33-4.45-6.2-3.88-8.73A11.16,11.16,0,0,1,31,25.17Z"/><path d="M41.75,18.77s12.16-6.16,14.07-7,5.75-1.74,8.65.54,3.8,3.94,4.27,7.61,1.69,14.21,1.69,14.21,9.56,8.51,11.12,10,2.36,3.81.67,5.39a3.89,3.89,0,0,1-4.66.56c-.78-.58-14.07-10.47-14.92-11.23s-1-1.82-1.38-3.71S60,29.78,60,29.78l-3.27,1.73S11.11,5.61,10.08,4.9a1.89,1.89,0,0,1-.8-2.61,1.73,1.73,0,0,1,2.34-.6C12.55,2.14,41.75,18.77,41.75,18.77Z"/><circle cx="81.16" cy="8.97" r="8.97"/></g></g></svg>