<svg xmlns="http://www.w3.org/2000/svg" viewBox="0 0 121.06 121.06"><defs><style>.cls-1{fill:#010101;}</style></defs><title>Streljastvo_1</title><g id="Layer_2" data-name="Layer 2"><g id="Layer_1-2" data-name="Layer 1"><path class="cls-1" d="M121.06,55.49H110.71A50.52,50.52,0,0,0,65.57,10.35V0H55.49V10.35A50.52,50.52,0,0,0,10.35,55.49H0V65.57H10.35a50.52,50.52,0,0,0,45.14,45.14v10.35H65.57V110.71a50.52,50.52,0,0,0,45.14-45.14h10.35Zm-55.49,45V90.79H55.49v9.74a40.39,40.39,0,0,1-35-35h9.74V55.49H20.52a40.41,40.41,0,0,1,35-35v9.74H65.57V20.52a40.39,40.39,0,0,1,35,35H90.79V65.57h9.74A40.37,40.37,0,0,1,65.57,100.53Z"/><path class="cls-1" d="M60.53,35.31A25.22,25.22,0,1,0,85.75,60.53,25.22,25.22,0,0,0,60.53,35.31Zm0,40.35A15.13,15.13,0,1,1,75.66,60.53,15.12,15.12,0,0,1,60.53,75.66Z"/><circle class="cls-1" cx="60.53" cy="60.53" r="5.04"/></g></g></svg>