<svg xmlns="http://www.w3.org/2000/svg" viewBox="0 0 89.18 89.08"><title>sume</title><g id="Layer_2" data-name="Layer 2"><g id="Layer_1-2" data-name="Layer 1"><path d="M.14,66.3l10.42-16a.84.84,0,0,0-.7-1.3H5.4a.84.84,0,0,1-.84-.83v-.48a.9.9,0,0,1,.1-.39l7.88-14.54a.84.84,0,0,0-.74-1.24H10a.84.84,0,0,1-.84-.83v-.47a.87.87,0,0,1,.11-.41L20.52,6.56l8.87,18.27L28.82,26a3.92,3.92,0,0,0-.43,1.77v.55a3.82,3.82,0,0,0,1.78,3.22h-.93a.84.84,0,0,0-.73,1.24L29.7,35,23.5,46.45A3.8,3.8,0,0,0,23,48.26v.56a3.82,3.82,0,0,0,3.81,3.81h1.81L18.31,68.51a3.76,3.76,0,0,0-.62,2.08v.51a3.81,3.81,0,0,0,3.81,3.81H25v7.62h-8.9V68.82a.84.84,0,0,0-.84-.84L.84,68A.84.84,0,0,1,0,67.19v-.44A.8.8,0,0,1,.14,66.3Z"/><path d="M89,66.3l-10.42-16a.84.84,0,0,1,.7-1.3h4.46a.83.83,0,0,0,.83-.83v-.48a.78.78,0,0,0-.1-.39L76.64,32.78a.84.84,0,0,1,.73-1.24h1.85a.83.83,0,0,0,.83-.83v-.47a.86.86,0,0,0-.1-.41L68.65,6.56,59.79,24.83,60.35,26a3.8,3.8,0,0,1,.44,1.77v.55A3.82,3.82,0,0,1,59,31.54h.92a.84.84,0,0,1,.74,1.24L59.47,35l6.21,11.46a3.8,3.8,0,0,1,.46,1.81v.56a3.82,3.82,0,0,1-3.82,3.81h-1.8L70.87,68.51a3.84,3.84,0,0,1,.62,2.08v.51a3.81,3.81,0,0,1-3.82,3.81H64.2v7.62h8.9V68.82a.85.85,0,0,1,.84-.84l14.4,0a.84.84,0,0,0,.84-.83v-.44A.8.8,0,0,0,89,66.3Z"/><path d="M21.5,72.08l16.88,0a1,1,0,0,1,1,1V89.08H49.8V73a1,1,0,0,1,1-1l16.88,0a1,1,0,0,0,1-1v-.51a1,1,0,0,0-.16-.54L56.27,51.31a1,1,0,0,1,.82-1.51h5.23a1,1,0,0,0,1-1v-.56a1,1,0,0,0-.11-.46L54,30.74a1,1,0,0,1,.86-1.44H57a1,1,0,0,0,1-1v-.55a1,1,0,0,0-.13-.48L44.59,0,31.34,27.29a1,1,0,0,0-.12.48v.55a1,1,0,0,0,1,1h2.16a1,1,0,0,1,.86,1.44L26,47.8a.93.93,0,0,0-.12.46v.56a1,1,0,0,0,1,1h5.23a1,1,0,0,1,.82,1.51L20.68,70.05a1,1,0,0,0-.16.54v.51A1,1,0,0,0,21.5,72.08Z"/></g></g></svg>