<svg xmlns="http://www.w3.org/2000/svg" viewBox="0 0 68.54 126.54"><defs><style>.cls-1{fill:#010101;}</style></defs><title>Vino</title><g id="Layer_2" data-name="Layer 2"><g id="Layer_1-2" data-name="Layer 1"><g id="Layer_2-2" data-name="Layer 2"><g id="Layer_1-2-2" data-name="Layer 1-2"><path class="cls-1" d="M36.91,110.77V68.41A34.29,34.29,0,0,0,68.54,34.27c0-7.45-4-19.83-6.89-28.87L60.51,1.85A2.63,2.63,0,0,0,58,0H10.94A2.63,2.63,0,0,0,8.47,1.7C5.92,8.45,0,25.12,0,34.27A34.29,34.29,0,0,0,31.63,68.41v42.37c-13.22.54-26.36,5.1-26.36,13.13a2.65,2.65,0,0,0,2.64,2.63H60.63a2.64,2.64,0,0,0,2.64-2.64C63.27,115.9,50.13,111.31,36.91,110.77ZM5.4,36.91c-.07-.87-.13-1.75-.13-2.64,0-6.4,3.76-18.86,7.5-29h43.3L56.63,7c2.64,8.21,6.64,20.62,6.64,27.24,0,.89-.05,1.77-.13,2.64Z"/></g></g></g></g></svg>